<?xml version="1.0" standalone="no"?>
<!DOCTYPE svg PUBLIC "-//W3C//DTD SVG 1.1//EN" "http://www.w3.org/Graphics/SVG/1.1/DTD/svg11.dtd" >
<svg xmlns="http://www.w3.org/2000/svg" xmlns:xlink="http://www.w3.org/1999/xlink" version="1.1">
<metadata>
Created by FontForge 20170924 at Tue Jul  7 14:29:20 2015
 By www-data
Copyright \(c\) 2005 by Masterfont Studio Rosenberg LTD.. All rights reserved.
</metadata>
<defs>
<font id="NarkisBlockMF-Regular" horiz-adv-x="0" >
  <font-face 
    font-family="NarkisBlockMF Regular"
    font-weight="400"
    font-stretch="normal"
    units-per-em="1000"
    panose-1="1 0 5 3 0 0 0 2 0 3"
    ascent="800"
    descent="-200"
    x-height="459"
    cap-height="680"
    bbox="-181 -398 1157 906"
    underline-thickness="50"
    underline-position="-200"
    stemh="34"
    stemv="83"
    unicode-range="U+0020-FFFC"
  />
<missing-glyph 
d="M0 0v700h500v-700h-500zM250 395l170 255h-340zM280 350l170 -255v510zM80 50h340l-170 255zM50 605v-510l170 255z" />
    <glyph glyph-name=".notdef" 
d="M0 0v700h500v-700h-500zM250 395l170 255h-340zM280 350l170 -255v510zM80 50h340l-170 255zM50 605v-510l170 255z" />
    <glyph glyph-name="NULL" 
 />
    <glyph glyph-name="CR" horiz-adv-x="250" 
 />
    <glyph glyph-name="space" unicode=" " horiz-adv-x="250" 
 />
    <glyph glyph-name="exclam" unicode="!" horiz-adv-x="293" 
d="M183 616l-19 -438h-71l-18 438h108zM175 0h-92v96h92v-96z" />
    <glyph glyph-name="quotedbl" unicode="&#x22;" horiz-adv-x="372" 
d="M323 625l-74 -245h-47l42 245h79zM170 625l-74 -245h-47l42 245h79z" />
    <glyph glyph-name="numbersign" unicode="#" horiz-adv-x="494" 
d="M418 370l-8 -44h-83l-18 -122h86l-6 -44h-86l-24 -160h-46l23 160h-93l-24 -160h-48l24 160h-82l7 44h81l18 122h-84l7 44h83l24 155h47l-22 -155h94l22 155h46l-22 -155h84zM281 326h-93l-19 -122h94z" />
    <glyph glyph-name="dollar" unicode="$" horiz-adv-x="530" 
d="M441 146c0 -100 -80 -161 -176 -161v-64h-38v64c-59 0 -107 4 -162 29v79c31 -32 118 -50 162 -50v208c-84 25 -172 52 -172 154c0 89 95 134 173 134v64h37v-64c50 0 104 -8 149 -29v-71c-33 29 -106 42 -149 42v-172c85 -24 176 -58 176 -163zM228 326v155
c-41 0 -94 -25 -94 -72c0 -56 51 -69 94 -83zM363 142c0 58 -49 82 -98 93v-193c59 0 98 41 98 100z" />
    <glyph glyph-name="percent" unicode="%" horiz-adv-x="700" 
d="M660 156c0 -82 -33 -163 -126 -163s-126 82 -126 164c0 81 35 163 127 163s125 -84 125 -164zM520 617l-283 -617h-63l282 617h64zM292 464c0 -82 -33 -163 -126 -163s-126 82 -126 164c0 81 35 163 127 163s125 -84 125 -164zM599 157c0 39 -11 111 -64 111
c-54 0 -66 -70 -66 -111s12 -112 66 -112c53 0 64 72 64 112zM231 465c0 39 -11 111 -64 111c-54 0 -66 -70 -66 -111s12 -112 66 -112c53 0 64 72 64 112z" />
    <glyph glyph-name="ampersand" unicode="&#x26;" horiz-adv-x="680" 
d="M662 101l13 -11c0 -19 -17 -43 -50 -71c-25 -21 -54 -32 -85 -32c-51 0 -102 28 -153 83c-67 -55 -134 -83 -200 -83c-46 0 -82 12 -109 37s-40 60 -40 106c0 47 19 89 58 127c11 11 27 24 47 39s44 29 71 44c-21 64 -32 107 -32 128c0 39 13 72 39 99c25 27 58 41 99 41
c35 0 64 -10 87 -29c24 -19 36 -46 36 -79c0 -38 -15 -70 -45 -97c-19 -17 -51 -36 -96 -57c33 -67 72 -127 119 -186c55 69 83 124 83 164c0 16 -6 27 -18 33c-8 3 -21 6 -40 8v18h195v-18c-21 -3 -36 -7 -45 -12c-15 -9 -29 -23 -40 -42l-22 -37c-7 -13 -16 -26 -25 -41
s-20 -30 -31 -46l-35 -52c11 -21 30 -40 57 -57s53 -26 76 -26c20 0 37 4 50 12c5 4 10 8 15 13zM394 504c0 21 -6 39 -19 54s-30 22 -51 22c-47 0 -70 -26 -70 -78c0 -35 12 -77 36 -128c69 39 104 83 104 130zM364 94c-21 25 -42 55 -65 90c-23 36 -47 78 -72 126l-22 -16
l-20 -15c-10 -8 -20 -18 -31 -30c-22 -25 -33 -54 -33 -87c0 -35 11 -64 33 -88c23 -25 51 -38 84 -38c39 0 81 19 126 58z" />
    <glyph glyph-name="quotesingle" unicode="'" horiz-adv-x="216" 
d="M178 625l-84 -246h-47l52 246h79z" />
    <glyph glyph-name="parenleft" unicode="(" horiz-adv-x="310" 
d="M252 -115h-63c-75 79 -131 271 -131 378s56 299 130 378h64c-73 -103 -111 -252 -111 -377s37 -276 111 -379z" />
    <glyph glyph-name="parenright" unicode=")" horiz-adv-x="310" 
d="M252 263c0 -107 -56 -299 -130 -378h-64c74 103 111 254 111 379s-38 274 -111 377h63c75 -79 131 -271 131 -378z" />
    <glyph glyph-name="asterisk" unicode="*" horiz-adv-x="387" 
d="M346 394l-30 -51l-102 70l9 -124h-58l8 124l-102 -70l-30 51l113 54l-113 55l30 51l103 -72l-9 125h58l-9 -125l102 72l30 -51l-112 -55z" />
    <glyph glyph-name="plus" unicode="+" horiz-adv-x="483" 
d="M442 214h-170v-170h-61v170h-170v61h170v170h61v-170h170v-61z" />
    <glyph glyph-name="comma" unicode="," horiz-adv-x="205" 
d="M170 93l-88 -245h-47l42 245h93z" />
    <glyph glyph-name="hyphen" unicode="-" horiz-adv-x="501" 
d="M413 236h-357v61h357v-61z" />
    <glyph glyph-name="period" unicode="." horiz-adv-x="203" 
d="M148 0h-93v96h93v-96z" />
    <glyph glyph-name="slash" unicode="/" horiz-adv-x="350" 
d="M329 607l-242 -694h-66l242 694h66z" />
    <glyph glyph-name="zero" unicode="0" horiz-adv-x="480" 
d="M434 262c0 -129 -39 -277 -194 -277s-193 150 -193 278s40 277 194 277s193 -151 193 -278zM351 263c0 72 -10 209 -110 209s-111 -136 -111 -209s11 -209 111 -209s110 137 110 209z" />
    <glyph glyph-name="one" unicode="1" horiz-adv-x="480" 
d="M323 0h-85v450l-136 -121v79l148 122h73v-530z" />
    <glyph glyph-name="two" unicode="2" horiz-adv-x="480" 
d="M421 0h-373v75c74 59 144 123 214 187c34 32 66 66 66 115c0 77 -59 93 -124 93c-47 0 -109 -17 -145 -50v82c38 26 101 38 145 38c111 0 208 -35 208 -163c0 -65 -54 -120 -100 -159c-60 -52 -119 -106 -182 -153h291v-65z" />
    <glyph glyph-name="three" unicode="3" horiz-adv-x="480" 
d="M420 146c0 -116 -107 -161 -208 -161c-47 0 -117 11 -157 39v79c40 -33 107 -50 157 -50c60 0 125 27 125 96c0 101 -114 100 -187 100v58c62 0 167 4 167 89c0 54 -60 75 -105 75s-109 -13 -145 -43v76c38 25 101 36 145 36c92 0 188 -36 188 -143
c0 -61 -63 -101 -116 -114c73 -8 136 -60 136 -137z" />
    <glyph glyph-name="four" unicode="4" horiz-adv-x="480" 
d="M444 119h-72v-119h-81v119h-248v85l215 326h114v-342h72v-69zM291 188v283l-183 -283h183z" />
    <glyph glyph-name="five" unicode="5" horiz-adv-x="480" 
d="M431 160c0 -124 -102 -175 -213 -175c-37 0 -121 6 -152 32v81c41 -28 103 -44 151 -44c70 0 131 30 131 108c0 82 -61 102 -132 102c-38 0 -105 -9 -136 -35v296h329v-65h-249v-141c19 7 57 8 77 8c113 0 194 -42 194 -167z" />
    <glyph glyph-name="six" unicode="6" horiz-adv-x="480" 
d="M440 165c0 -113 -81 -180 -191 -180c-158 0 -202 135 -202 271c0 140 58 284 219 284c33 0 110 -4 140 -23v-75c-19 25 -107 29 -133 29c-121 0 -146 -98 -146 -198c22 44 74 73 122 73c118 0 191 -60 191 -181zM357 166c0 69 -37 114 -108 114c-65 0 -105 -46 -105 -109
c0 -62 39 -117 105 -117c73 0 108 40 108 112z" />
    <glyph glyph-name="seven" unicode="7" horiz-adv-x="480" 
d="M429 450c-91 -143 -167 -283 -205 -450h-91c29 118 83 228 146 331c25 40 52 79 78 119h-307v75h379v-75z" />
    <glyph glyph-name="eight" unicode="8" horiz-adv-x="480" 
d="M427 143c0 -113 -84 -158 -187 -158c-102 0 -187 43 -187 156c0 63 41 123 104 137c-54 14 -90 64 -90 119c0 97 86 143 173 143s172 -46 172 -143c0 -54 -35 -105 -89 -119c63 -13 104 -72 104 -135zM331 394c0 50 -44 82 -91 82s-91 -32 -91 -82c0 -54 39 -87 91 -87
s91 33 91 87zM345 151c0 60 -47 97 -105 97c-57 0 -105 -37 -105 -97c0 -67 40 -102 105 -102s105 35 105 102z" />
    <glyph glyph-name="nine" unicode="9" horiz-adv-x="480" 
d="M421 288c0 -152 -49 -303 -226 -303c-31 0 -97 7 -120 33v78c24 -31 84 -42 120 -42c108 0 146 98 146 191v8c-22 -40 -71 -65 -116 -65c-111 0 -183 58 -183 173c0 106 80 179 185 179c148 0 194 -123 194 -252zM328 361c0 63 -35 110 -101 110
c-67 0 -102 -46 -102 -110s37 -107 102 -107s101 44 101 107z" />
    <glyph glyph-name="colon" unicode=":" horiz-adv-x="260" 
d="M176 313h-92v95h92v-95zM176 0h-92v95h92v-95z" />
    <glyph glyph-name="semicolon" unicode=";" horiz-adv-x="260" 
d="M176 313h-92v95h92v-95zM179 94l-88 -245h-48l42 245h94z" />
    <glyph glyph-name="less" unicode="&#x3c;" horiz-adv-x="497" 
d="M462 25l-427 193v53l427 193v-71l-328 -149l328 -148v-71z" />
    <glyph glyph-name="equal" unicode="=" horiz-adv-x="503" 
d="M452 304h-401v60h401v-60zM452 125h-401v60h401v-60z" />
    <glyph glyph-name="greater" unicode="&#x3e;" horiz-adv-x="497" 
d="M462 217l-427 -193v71l328 148l-328 149v71l427 -193v-53z" />
    <glyph glyph-name="question" unicode="?" horiz-adv-x="410" 
d="M355 425c0 -84 -66 -148 -145 -165v-84h-88v121h1c80 0 140 46 140 130c0 61 -41 114 -105 114c-29 0 -79 -6 -103 -25v73c24 19 74 26 103 26c117 0 197 -71 197 -190zM212 0h-92v95h92v-95z" />
    <glyph glyph-name="at" unicode="@" horiz-adv-x="968" 
d="M898 94h30c-45 -101 -99 -175 -163 -224c-71 -55 -161 -82 -268 -82c-133 0 -239 43 -320 130c-77 83 -116 190 -116 319c0 131 45 241 135 328c91 87 204 131 341 131c100 0 182 -33 246 -99c64 -65 96 -151 96 -256c0 -93 -26 -176 -77 -249
c-51 -72 -110 -108 -175 -108s-98 25 -101 76c-1 16 2 39 8 69c-42 -49 -71 -81 -87 -95c-39 -33 -73 -50 -103 -50s-53 12 -70 37c-15 21 -22 48 -22 82c0 74 29 152 86 235c61 87 126 131 195 131c40 0 68 -40 75 -85l20 65l82 10l-94 -317c-9 -28 -13 -53 -13 -74
c0 -33 12 -50 36 -50c51 0 98 34 141 101c43 69 65 144 65 226c0 91 -31 168 -92 231c-60 61 -131 92 -214 92c-127 0 -232 -43 -314 -130c-80 -84 -120 -188 -120 -311c0 -111 36 -206 109 -285c76 -83 172 -124 289 -124c187 0 319 92 395 276zM585 369c0 19 -7 35 -22 50
c-15 16 -30 24 -43 24c-51 0 -98 -41 -142 -122c-39 -73 -58 -140 -58 -203c0 -47 18 -70 55 -70c47 0 95 39 143 117c45 73 67 141 67 204z" />
    <glyph glyph-name="A" unicode="A" horiz-adv-x="750" 
d="M742 18v-18h-280v18c49 0 74 14 74 43c0 13 -4 28 -12 46l-51 120h-265l-52 -120c-8 -18 -12 -33 -12 -45c0 -29 26 -44 79 -44v-18h-217v18c39 0 72 30 97 89l253 589h24l249 -589c14 -33 28 -56 42 -68c16 -14 40 -21 71 -21zM223 265h231l-113 274z" />
    <glyph glyph-name="B" unicode="B" horiz-adv-x="672" 
d="M621 184c0 -53 -20 -97 -60 -132c-39 -35 -91 -52 -156 -52h-385v18c72 0 96 19 96 90v464c0 71 -24 90 -96 90v18h345c67 0 120 -15 161 -46c42 -31 63 -72 63 -121c0 -38 -8 -68 -24 -91s-46 -46 -89 -69v-2c89 -15 145 -78 145 -167zM483 503c0 43 -14 77 -42 102
c-31 27 -77 41 -136 41c-28 0 -56 -4 -85 -11v-258c17 -5 60 -7 131 -7c81 0 132 57 132 133zM509 180c0 46 -14 83 -41 110c-31 31 -78 46 -141 46c-35 0 -70 -2 -107 -7v-279c31 -7 68 -11 113 -11c57 0 102 14 133 42c29 25 43 58 43 99z" />
    <glyph glyph-name="C" unicode="C" horiz-adv-x="685" 
d="M635 169l17 -10c-28 -50 -64 -91 -107 -122c-51 -35 -104 -53 -159 -53c-101 0 -186 34 -253 101s-101 150 -101 247c0 101 35 186 106 257s155 107 251 107c35 0 66 -4 92 -12c17 -5 34 -13 51 -22c15 -8 25 -12 32 -12c15 0 32 21 37 46h17l17 -231h-24
c-7 55 -30 101 -70 139c-39 39 -84 58 -135 58c-75 0 -137 -32 -184 -95c-45 -61 -68 -140 -68 -239c0 -93 26 -168 78 -224c49 -54 112 -81 189 -81c79 0 151 49 214 146z" />
    <glyph glyph-name="D" unicode="D" horiz-adv-x="737" 
d="M705 346c0 -99 -31 -181 -93 -245c-65 -67 -154 -101 -265 -101h-327v18c72 0 96 19 96 90v464c0 71 -24 90 -96 90v18h302c127 0 219 -27 278 -82c70 -65 105 -149 105 -252zM583 344c0 85 -24 156 -72 214c-48 59 -108 88 -181 88c-32 0 -69 -6 -110 -17v-579
c27 -11 64 -16 110 -16c72 0 132 28 179 83c49 59 74 134 74 227z" />
    <glyph glyph-name="E" unicode="E" horiz-adv-x="625" 
d="M583 191h24l-61 -191h-526v18c72 0 96 19 96 90v464c0 71 -24 90 -96 90v18h522l8 -162h-18c-9 44 -24 76 -43 95c-22 22 -54 33 -97 33h-172v-258h147c68 0 102 29 102 88h18v-230h-18c0 72 -33 108 -100 108h-149v-278c0 -23 19 -42 40 -42h142c88 0 148 52 181 157z
" />
    <glyph glyph-name="F" unicode="F" horiz-adv-x="552" 
d="M524 680l8 -162h-18c-9 44 -24 76 -43 95c-22 22 -54 33 -97 33h-154v-258h103c68 0 102 29 102 88h18v-230h-18c0 72 -33 108 -100 108h-105v-246c0 -71 24 -90 96 -90v-18h-296v18c72 0 96 19 96 90v464c0 71 -24 90 -96 90v18h504z" />
    <glyph glyph-name="G" unicode="G" horiz-adv-x="758" 
d="M726 363v-18c-52 0 -69 -21 -69 -85v-210c-74 -44 -164 -66 -271 -66c-101 0 -186 34 -253 101s-101 150 -101 247c0 101 35 186 106 257s155 107 251 107c47 0 89 -8 127 -23s58 -23 60 -23c15 0 32 21 37 46h17l17 -231h-24c-33 131 -106 197 -217 197
c-75 0 -137 -32 -184 -95c-45 -61 -68 -140 -68 -239c0 -93 26 -168 78 -224c49 -54 112 -81 189 -81c53 0 97 16 132 47v190c0 65 -20 85 -95 85v18h268z" />
    <glyph glyph-name="H" unicode="H" horiz-adv-x="751" 
d="M731 18v-18h-296v18c72 0 96 19 96 90v228h-311v-228c0 -71 24 -90 96 -90v-18h-296v18c72 0 96 19 96 90v464c0 71 -24 90 -96 90v18h296v-18c-72 0 -96 -19 -96 -90v-202h311v202c0 71 -24 90 -96 90v18h296v-18c-72 0 -96 -19 -96 -90v-464c0 -71 24 -90 96 -90z" />
    <glyph glyph-name="I" unicode="I" horiz-adv-x="342" 
d="M319 18v-18h-296v18c72 0 96 19 96 90v464c0 71 -24 90 -96 90v18h296v-18c-72 0 -96 -19 -96 -90v-464c0 -71 24 -90 96 -90z" />
    <glyph glyph-name="J" unicode="J" horiz-adv-x="397" 
d="M387 680v-18c-72 0 -96 -19 -96 -90v-354c0 -153 -73 -234 -190 -234c-27 0 -50 6 -67 19c-20 15 -30 34 -30 59c0 28 28 50 55 50c20 0 35 -8 44 -24l19 -47c7 -15 18 -23 31 -23c23 0 34 22 34 65v489c0 71 -24 90 -96 90v18h296z" />
    <glyph glyph-name="K" unicode="K" horiz-adv-x="752" 
d="M761 18v-18h-317v18c32 0 48 12 48 36c0 12 -13 31 -38 56l-234 235v-237c0 -71 24 -90 96 -90v-18h-296v18c72 0 96 19 96 90v464c0 71 -24 90 -96 90v18h296v-18c-72 0 -96 -19 -96 -90v-193l217 196c31 28 46 49 46 63c0 16 -21 24 -63 24v18h251v-19
c-62 0 -101 -19 -165 -78l-202 -189l276 -275c47 -47 79 -74 98 -85s47 -16 83 -16z" />
    <glyph glyph-name="L" unicode="L" horiz-adv-x="628" 
d="M590 190l20 -5l-59 -185h-531v18c72 0 96 19 96 90v464c0 71 -24 90 -96 90v18h296v-18c-72 0 -96 -19 -96 -90v-487c0 -28 18 -51 39 -51h127c103 0 171 52 204 156z" />
    <glyph glyph-name="M" unicode="M" horiz-adv-x="926" 
d="M904 18v-18h-296v18c72 0 96 19 96 90v449h-4l-253 -557h-21l-257 553h-7v-445c0 -71 24 -90 96 -90v-18h-238v18c72 0 96 19 96 90v464c0 71 -24 90 -96 90v18h202l241 -522h5l236 522h200v-18c-72 0 -96 -19 -96 -90v-464c0 -71 24 -90 96 -90z" />
    <glyph glyph-name="N" unicode="N" horiz-adv-x="739" 
d="M722 680v-18c-72 0 -96 -19 -96 -90v-588h-24l-439 553h-4v-429c0 -71 24 -90 96 -90v-18h-238v18c72 0 96 19 96 90v458c0 56 -50 96 -113 96v18h171l405 -497h4v389c0 71 -24 90 -96 90v18h238z" />
    <glyph glyph-name="O" unicode="O" horiz-adv-x="746" 
d="M714 344c0 -99 -33 -184 -99 -255c-66 -70 -147 -105 -242 -105s-176 35 -242 105c-66 71 -99 156 -99 255c0 98 33 181 99 249c66 69 147 103 242 103s176 -34 242 -103c66 -68 99 -151 99 -249zM592 344c0 95 -19 172 -57 229c-39 59 -93 89 -162 89s-124 -30 -163 -89
c-37 -57 -56 -134 -56 -229c0 -97 19 -174 56 -233c39 -62 93 -93 163 -93c69 0 123 31 162 93c38 59 57 136 57 233z" />
    <glyph glyph-name="P" unicode="P" horiz-adv-x="576" 
d="M544 486c0 -59 -21 -105 -64 -138c-37 -30 -84 -45 -139 -45c-50 0 -90 4 -121 12v-207c0 -71 24 -90 96 -90v-18h-296v18c72 0 96 19 96 90v464c0 71 -24 90 -96 90v18h292c66 0 121 -17 164 -50c45 -36 68 -84 68 -144zM432 479c0 47 -13 85 -40 116s-60 47 -98 47
c-29 0 -54 -3 -74 -10v-279c33 -10 59 -15 79 -15c43 0 76 14 100 41c22 25 33 58 33 100z" />
    <glyph glyph-name="Q" unicode="Q" horiz-adv-x="738" 
d="M706 344c0 -81 -24 -154 -72 -221c-49 -69 -110 -112 -184 -129c15 -49 46 -92 92 -128c49 -41 103 -61 160 -61v-18c-84 0 -170 24 -258 72c-76 41 -133 88 -172 139c-69 19 -126 62 -172 130c-45 69 -68 141 -68 216c0 99 32 182 97 249c65 69 145 103 240 103
s175 -34 240 -103c65 -67 97 -150 97 -249zM588 344c0 95 -19 172 -57 229c-39 59 -93 89 -162 89s-124 -30 -163 -89c-37 -57 -56 -134 -56 -229c0 -97 19 -174 56 -233c39 -62 93 -93 163 -93c141 17 219 135 219 326z" />
    <glyph glyph-name="R" unicode="R" horiz-adv-x="691" 
d="M702 18v-18h-194l-215 320h-73v-212c0 -71 24 -90 96 -90v-18h-296v18c72 0 96 19 96 90v464c0 71 -24 90 -96 90v18h310c71 0 127 -17 168 -50c37 -31 56 -74 56 -127c0 -84 -59 -149 -151 -173l145 -213c45 -66 96 -99 154 -99zM442 499c0 42 -12 77 -37 104
c-25 29 -56 43 -93 43c-39 0 -70 -4 -92 -13v-279h60c95 0 162 57 162 145z" />
    <glyph glyph-name="S" unicode="S" horiz-adv-x="560" 
d="M510 179c0 -55 -20 -101 -59 -138c-42 -38 -98 -57 -168 -57c-35 0 -70 7 -106 20c-31 12 -52 18 -62 18c-17 0 -28 -13 -32 -38h-18v230h18c5 -60 29 -107 70 -142c39 -33 85 -50 138 -50c35 0 65 10 90 31c26 21 39 48 39 81c0 45 -31 87 -94 126l-174 100
c-63 44 -94 95 -94 153c0 52 19 96 56 131s86 52 146 52c23 0 51 -5 85 -16c4 -1 15 -6 34 -14c14 -5 24 -8 31 -8c19 0 37 21 37 38h18v-237h-19c-12 125 -78 199 -186 199c-35 0 -65 -12 -89 -36c-22 -21 -33 -46 -33 -73c0 -39 32 -78 96 -117l180 -104
c64 -45 96 -95 96 -149z" />
    <glyph glyph-name="T" unicode="T" horiz-adv-x="590" 
d="M570 680l8 -162h-18c-9 44 -24 76 -43 95c-22 22 -54 33 -97 33h-74v-538c0 -71 24 -90 96 -90v-18h-296v18c72 0 96 19 96 90v538h-74c-85 0 -123 -40 -140 -128h-18l8 162h552z" />
    <glyph glyph-name="U" unicode="U" horiz-adv-x="752" 
d="M743 680v-18c-72 0 -96 -19 -96 -90v-333c0 -75 -21 -135 -63 -180c-48 -50 -117 -75 -208 -75c-83 0 -148 25 -196 76c-45 47 -67 107 -67 181v331c0 71 -24 90 -96 90v18h296v-18c-72 0 -96 -19 -96 -90v-333c0 -59 18 -109 53 -150s81 -61 139 -61s105 21 141 62
c34 39 51 88 51 149v333c0 71 -24 90 -96 90v18h238z" />
    <glyph glyph-name="V" unicode="V" horiz-adv-x="724" 
d="M721 680v-18c-41 0 -76 -38 -107 -115l-228 -563h-26l-258 594c-27 61 -54 84 -102 84v18h278v-18c-49 0 -74 -16 -74 -47c0 -13 5 -30 14 -53l183 -423l168 416c8 19 12 36 12 51c0 37 -23 56 -70 56v18h210z" />
    <glyph glyph-name="W" unicode="W" horiz-adv-x="946" 
d="M950 680v-18c-28 0 -48 -9 -61 -27c-9 -10 -20 -36 -34 -78l-195 -573h-24l-157 431l-153 -431h-24l-204 570c-15 41 -27 68 -38 82c-13 17 -33 26 -60 26v18h252v-18c-45 0 -67 -12 -67 -37c0 -12 6 -34 17 -67l140 -395l113 318l-26 74c-14 39 -26 66 -37 79
c-16 19 -39 28 -69 28v18h265v-18c-45 0 -68 -13 -68 -38c0 -17 5 -39 15 -68l136 -393l138 396c7 23 11 41 11 53c0 33 -24 50 -73 50l1 18h202z" />
    <glyph glyph-name="X" unicode="X" horiz-adv-x="742" 
d="M734 18v-18h-295v17c45 1 67 14 67 39c0 13 -7 31 -20 52l-126 190l-143 -184c-18 -18 -27 -36 -27 -54c0 -28 21 -42 62 -42v-18h-252v18c27 0 56 9 87 28c30 17 54 38 71 61l177 231l-167 241c-39 55 -87 83 -144 83v18h319v-18c-48 0 -72 -13 -72 -38
c0 -13 7 -29 20 -48l107 -158l124 157c17 23 26 40 26 53c0 23 -23 34 -69 34v18h239v-19c-52 1 -87 -19 -131 -75l-166 -209l192 -269c23 -32 39 -53 50 -63c21 -18 44 -27 71 -27z" />
    <glyph glyph-name="Y" unicode="Y" horiz-adv-x="694" 
d="M695 680v-18c-57 0 -87 -22 -126 -85l-178 -283v-186c0 -71 24 -90 96 -90v-18h-296v18c72 0 96 19 96 90v175l-201 302c-18 27 -32 45 -42 55c-15 15 -35 22 -60 22v18h296v-18c-55 0 -82 -16 -81 -47c0 -13 6 -28 18 -47l147 -236l153 246c7 11 10 22 10 35
c0 33 -24 49 -71 49v18h239z" />
    <glyph glyph-name="Z" unicode="Z" horiz-adv-x="622" 
d="M580 178h18l-32 -178h-556v17l438 624h-210c-51 0 -86 -9 -107 -28c-21 -18 -35 -53 -42 -104h-18l15 171h511l-451 -641h275c68 0 130 59 159 139z" />
    <glyph glyph-name="bracketleft" unicode="[" horiz-adv-x="271" 
d="M232 -115h-161v755h161v-42h-87v-672h87v-41z" />
    <glyph glyph-name="backslash" unicode="\" horiz-adv-x="275" 
d="M46 696l228 -712h-47l-228 712h47z" />
    <glyph glyph-name="bracketright" unicode="]" horiz-adv-x="271" 
d="M196 -115h-161v41h87v672h-87v42h161v-755z" />
    <glyph glyph-name="asciicircum" unicode="^" horiz-adv-x="496" 
d="M264 696l220 -368h-63l-174 292l-175 -292h-60l220 368h32z" />
    <glyph glyph-name="underscore" unicode="_" horiz-adv-x="550" 
d="M550 -100v-46h-550v46h550z" />
    <glyph glyph-name="grave" unicode="`" horiz-adv-x="201" 
d="M137 896l53 -177h-28l-151 177h126z" />
    <glyph glyph-name="a" unicode="a" horiz-adv-x="445" 
d="M439 92v-34c-27 -45 -63 -68 -107 -68c-17 0 -29 8 -38 25c-8 13 -12 29 -12 48c-35 -29 -54 -46 -59 -49c-25 -16 -53 -24 -84 -24c-65 0 -107 47 -107 115c0 52 28 94 85 127c22 13 77 35 165 66v28c0 75 -27 113 -81 113c-45 0 -68 -23 -68 -70c0 -41 -14 -61 -41 -61
c-25 0 -44 23 -44 54c0 29 17 55 50 76s72 31 119 31c99 0 148 -41 148 -122v-260c0 -23 8 -35 23 -35c17 0 34 13 51 40zM282 96v172c-111 -39 -167 -86 -167 -139c0 -44 32 -83 68 -83c25 0 58 17 99 50z" />
    <glyph glyph-name="b" unicode="b" horiz-adv-x="506" 
d="M468 264c0 -75 -23 -139 -68 -194c-45 -53 -100 -80 -165 -80c-67 0 -120 18 -161 55v505c0 31 -1 50 -4 57c-3 12 -12 18 -26 18c-7 0 -21 -3 -41 -8l-7 18l137 61h24v-322c13 25 33 48 62 67s56 28 82 28c48 0 88 -20 119 -60c32 -39 48 -88 48 -145zM381 235
c0 45 -12 84 -36 116s-53 48 -86 48c-37 0 -82 -25 -102 -56v-268c30 -31 62 -47 95 -47c38 0 69 19 93 58s36 88 36 149z" />
    <glyph glyph-name="c" unicode="c" horiz-adv-x="450" 
d="M402 180l19 -6c-28 -117 -96 -184 -192 -184c-55 0 -101 22 -140 66c-38 45 -57 99 -57 162c0 69 21 128 63 177c43 49 95 74 154 74c47 0 86 -10 115 -31c31 -21 46 -47 46 -78c0 -28 -27 -51 -55 -51c-29 0 -49 24 -49 51c0 50 -23 75 -70 75c-73 0 -121 -69 -121 -158
c0 -61 13 -113 40 -154c27 -42 62 -63 106 -63c62 0 109 40 141 120z" />
    <glyph glyph-name="d" unicode="d" horiz-adv-x="510" 
d="M505 67l6 -14l-140 -63h-24v55c-41 -37 -87 -55 -138 -55c-49 0 -90 23 -125 69c-35 47 -52 102 -52 165s22 119 65 170c44 50 96 75 155 75c35 0 67 -14 95 -42v123c0 31 -1 50 -4 57c-3 12 -12 18 -26 18c-7 0 -21 -3 -41 -8l-7 18l137 61h24v-560c0 -60 10 -77 42 -77
c11 0 22 3 33 8zM347 87v227c0 35 -11 64 -33 88c-21 22 -45 33 -71 33c-34 0 -62 -17 -85 -52s-34 -79 -34 -133c0 -58 13 -108 38 -149c26 -41 57 -61 94 -61c35 0 65 16 91 47z" />
    <glyph glyph-name="e" unicode="e" horiz-adv-x="462" 
d="M417 164l18 -3c-12 -48 -37 -88 -76 -121s-80 -50 -122 -50c-57 0 -105 22 -145 65c-40 44 -60 97 -60 158c0 75 19 136 57 184s88 72 149 72c53 0 98 -18 133 -54c35 -35 53 -79 53 -131h-312c0 -63 14 -116 42 -159s63 -65 106 -65c35 0 69 10 100 30
c31 21 50 46 57 74zM112 308h208c0 35 -11 65 -32 90s-46 37 -76 37c-25 0 -48 -13 -67 -38s-30 -55 -33 -89z" />
    <glyph glyph-name="f" unicode="f" horiz-adv-x="292" 
d="M409 615c0 -26 -14 -39 -41 -39c-21 0 -38 14 -53 43s-34 43 -57 43c-35 0 -69 -41 -69 -86v-117h112v-34h-112v-318c0 -68 13 -89 72 -89v-18h-227v18c29 0 49 7 59 21c9 11 13 34 13 68v318h-88v34h88v69c0 46 15 86 45 119c31 33 68 49 111 49c98 0 147 -27 147 -81z
" />
    <glyph glyph-name="g" unicode="g" horiz-adv-x="500" 
d="M474 -36c0 -108 -95 -176 -248 -176c-137 0 -206 31 -206 94c0 23 10 46 31 69c9 11 29 31 62 60c-37 13 -55 31 -55 56c0 37 37 82 85 101c-60 28 -90 73 -90 136c0 45 18 84 53 116c35 33 79 49 131 49c57 0 96 -11 118 -33h119v-38h-79c18 -28 27 -58 27 -89
c0 -47 -18 -86 -54 -116c-37 -29 -83 -44 -140 -44c-21 0 -41 3 -61 10c-19 -17 -29 -35 -29 -53c0 -20 18 -31 53 -32l155 -7c85 -4 128 -38 128 -103zM332 286c0 45 -10 82 -31 113s-45 46 -74 46c-54 0 -81 -41 -81 -124c0 -84 40 -148 96 -148c24 0 45 11 63 33
s27 49 27 80zM436 -69c0 39 -35 59 -104 59c-85 0 -149 5 -194 14c-25 -21 -38 -47 -38 -78c0 -22 13 -40 40 -54c29 -16 68 -24 118 -24c51 0 95 9 131 26c31 17 47 36 47 57z" />
    <glyph glyph-name="h" unicode="h" horiz-adv-x="520" 
d="M506 18v-18h-227v18c29 0 49 7 59 21c9 11 13 34 13 68v208c0 61 -22 92 -67 92c-37 0 -76 -22 -117 -66v-234c0 -68 13 -89 72 -89v-18h-227v18c29 0 49 7 59 21c9 11 13 34 13 68v443c0 31 -1 50 -4 57c-3 12 -12 18 -26 18c-7 0 -21 -3 -41 -8l-7 18l137 61h24v-320
c50 62 104 93 162 93c29 0 54 -14 74 -41c21 -27 31 -59 31 -98v-223c0 -68 13 -89 72 -89z" />
    <glyph glyph-name="i" unicode="i" horiz-adv-x="278" 
d="M192 650c0 -25 -21 -46 -48 -46s-48 21 -48 46s21 46 48 46s48 -21 48 -46zM258 18v-18h-227v18c29 0 49 7 59 21c9 11 13 34 13 68v216c0 31 -1 50 -4 57c-3 12 -12 18 -26 18c-7 0 -21 -3 -41 -8l-7 18l137 61h24v-362c0 -68 13 -89 72 -89z" />
    <glyph glyph-name="j" unicode="j" horiz-adv-x="278" 
d="M192 650c0 -25 -21 -46 -48 -46s-48 21 -48 46s21 46 48 46s48 -21 48 -46zM186 469v-469c0 -88 -15 -147 -44 -178c-22 -23 -63 -34 -123 -34c-49 0 -82 24 -82 55c0 26 14 39 43 39c12 0 25 -10 38 -30c14 -20 28 -30 42 -30c29 0 43 26 43 78v423c0 31 -1 50 -4 57
c-3 12 -12 18 -26 18c-7 0 -21 -3 -41 -8l-7 18l137 61h24z" />
    <glyph glyph-name="k" unicode="k" horiz-adv-x="510" 
d="M525 18v-18h-227v18c20 0 30 8 30 23c0 10 -12 30 -37 61l-120 150v-145c0 -68 13 -89 72 -89v-18h-227v18c29 0 49 7 59 21c9 11 13 34 13 68v443c0 31 -1 50 -4 57c-3 12 -12 18 -26 18c-7 0 -21 -3 -41 -8l-7 18l137 61h24v-435l111 101c24 23 54 47 54 63
c0 11 -12 16 -36 16v18h190v-18c-30 0 -55 -5 -76 -14c-18 -9 -46 -29 -83 -61l-84 -73l136 -172c33 -41 58 -68 77 -83c19 -13 41 -20 65 -20z" />
    <glyph glyph-name="l" unicode="l" horiz-adv-x="277" 
d="M253 18v-18h-227v18c29 0 49 7 59 21c9 11 13 34 13 68v443c0 31 -1 50 -4 57c-3 12 -12 18 -26 18c-7 0 -21 -3 -41 -8l-7 18l137 61h24v-589c0 -68 13 -89 72 -89z" />
    <glyph glyph-name="m" unicode="m" horiz-adv-x="805" 
d="M797 18v-18h-227v18c29 0 49 7 59 21c9 11 13 34 13 68v205c0 52 -34 95 -75 95c-45 0 -98 -29 -119 -65v-235c0 -68 13 -89 72 -89v-18h-227v18c29 0 49 7 59 21c9 11 13 34 13 68v205c0 52 -35 95 -75 95c-41 0 -94 -29 -119 -65v-235c0 -68 13 -89 72 -89v-18h-227v18
c29 0 49 7 59 21c9 11 13 34 13 68v216c0 31 -1 50 -4 57c-3 12 -12 18 -26 18c-7 0 -21 -3 -41 -8l-7 18l137 61h24v-95c23 27 49 50 77 67c31 19 58 28 83 28c27 0 51 -9 74 -28s37 -42 42 -69c13 26 36 49 69 68s64 29 95 29s58 -14 80 -43c23 -27 34 -61 34 -101v-218
c0 -68 13 -89 72 -89z" />
    <glyph glyph-name="n" unicode="n" horiz-adv-x="518" 
d="M510 18v-18h-227v18c29 0 49 7 59 21c9 11 13 34 13 68v208c0 61 -22 92 -67 92c-37 0 -76 -22 -117 -66v-234c0 -68 13 -89 72 -89v-18h-227v18c29 0 49 7 59 21c9 11 13 34 13 68v216c0 31 -1 50 -4 57c-3 12 -12 18 -26 18c-7 0 -21 -3 -41 -8l-7 18l137 61h24v-93
c50 62 104 93 162 93c29 0 54 -14 74 -41c21 -27 31 -59 31 -98v-223c0 -68 13 -89 72 -89z" />
    <glyph glyph-name="o" unicode="o" horiz-adv-x="506" 
d="M474 243c0 -71 -21 -131 -63 -180s-95 -73 -158 -73s-116 23 -158 68s-63 100 -63 166c0 69 21 127 63 174s95 71 158 71s116 -22 158 -66c42 -43 63 -97 63 -160zM381 196c0 159 -49 239 -148 239c-29 0 -54 -17 -76 -50c-21 -33 -32 -73 -32 -119
c0 -69 13 -126 38 -171c27 -47 63 -71 106 -71c32 0 59 17 80 50c21 35 32 75 32 122z" />
    <glyph glyph-name="p" unicode="p" horiz-adv-x="516" 
d="M484 253c0 -78 -18 -141 -55 -188c-37 -50 -87 -75 -149 -75c-43 0 -81 11 -112 34v-111c0 -68 13 -89 72 -89v-18h-227v18c59 0 72 22 72 89v410c0 31 -1 50 -4 57c-3 12 -12 18 -26 18c-7 0 -21 -3 -41 -8l-7 18l137 61h24v-103c48 69 99 103 152 103
c49 0 88 -21 118 -63c31 -41 46 -92 46 -153zM392 205c0 67 -10 117 -31 152c-19 33 -45 50 -78 50c-43 0 -82 -25 -115 -74v-209c0 -56 47 -100 112 -100c31 0 58 17 79 50c22 34 33 78 33 131z" />
    <glyph glyph-name="q" unicode="q" horiz-adv-x="512" 
d="M503 -176v-18h-227v18c59 0 72 22 72 89v159c-45 -55 -94 -82 -149 -82c-46 0 -85 21 -118 63c-33 43 -49 94 -49 154c0 72 22 134 66 185c45 51 99 77 162 77c44 0 73 -11 88 -34l63 34h20v-556c0 -68 13 -89 72 -89zM348 116v232c0 22 -8 41 -25 58
c-19 19 -44 29 -74 29c-36 0 -67 -18 -92 -53s-38 -78 -38 -127c0 -54 12 -100 36 -138s53 -57 87 -57c24 0 46 6 67 19c19 11 32 23 39 37z" />
    <glyph glyph-name="r" unicode="r" horiz-adv-x="344" 
d="M353 414c0 -30 -16 -45 -48 -45c-13 0 -26 5 -38 15s-22 15 -31 15c-18 0 -40 -24 -67 -72v-220c0 -68 13 -89 72 -89v-18h-227v18c29 0 49 7 59 21c9 11 13 34 13 68v216c0 31 -1 50 -4 57c-3 12 -12 18 -26 18c-7 0 -21 -3 -41 -8l-7 18l137 61h24v-96
c39 64 78 96 119 96c36 0 65 -24 65 -55z" />
    <glyph glyph-name="s" unicode="s" horiz-adv-x="402" 
d="M367 129c0 -81 -59 -139 -160 -139c-19 0 -42 4 -68 11c-25 8 -41 12 -46 12c-10 0 -17 -4 -21 -13h-18v159h18c5 -37 21 -69 48 -96c27 -26 56 -39 89 -39c43 0 76 30 76 66c0 31 -20 57 -61 80c-37 21 -74 41 -113 61c-41 29 -61 65 -61 110c0 76 54 128 135 128
c19 0 39 -3 61 -9c23 -6 37 -9 43 -9c11 0 18 6 21 18h18v-153h-18c-2 35 -14 64 -37 87c-23 24 -50 36 -80 36c-48 0 -81 -28 -81 -61c0 -31 22 -57 66 -80c41 -20 82 -40 123 -61c44 -29 66 -65 66 -108z" />
    <glyph glyph-name="t" unicode="t" horiz-adv-x="290" 
d="M268 97h22c-21 -71 -64 -107 -128 -107c-55 0 -82 36 -82 107v328h-72v24c31 0 59 16 83 48s40 72 48 120h24v-158h111v-34h-111v-328c0 -27 20 -49 45 -49s45 16 60 49z" />
    <glyph glyph-name="u" unicode="u" horiz-adv-x="518" 
d="M512 67l6 -14l-140 -63h-24v96c-15 -26 -36 -49 -64 -68c-27 -19 -53 -28 -78 -28c-37 0 -68 14 -94 42c-25 29 -38 62 -38 101v229c0 61 -16 79 -72 79v18h155v-326c0 -47 41 -83 92 -83c33 0 78 33 99 74v238c0 61 -16 79 -72 79v18h155v-323c0 -60 10 -77 42 -77
c11 0 22 3 33 8z" />
    <glyph glyph-name="v" unicode="v" horiz-adv-x="494" 
d="M485 459v-18c-25 0 -46 -20 -63 -60l-163 -391h-24l-163 381c-24 56 -39 70 -72 70v18h208v-18c-35 0 -53 -10 -53 -29c0 -13 5 -31 15 -56l100 -244l104 254c9 20 13 39 13 56c0 13 -19 19 -57 19v18h155z" />
    <glyph glyph-name="w" unicode="w" horiz-adv-x="753" 
d="M753 459v-18c-29 0 -52 -8 -68 -25c-13 -13 -25 -36 -36 -68l-132 -358h-24l-119 308l-119 -308h-24l-139 354c-17 45 -31 71 -40 82c-9 10 -27 15 -52 15v18h200v-18c-26 0 -39 -8 -39 -25c0 -15 6 -38 18 -68l90 -224l86 220l-10 26c-5 15 -15 30 -29 44
c-18 18 -38 27 -60 27v18h232v-18c-42 0 -63 -11 -63 -33c0 -11 6 -31 17 -60l90 -224l75 214c13 39 20 63 20 72c0 21 -15 31 -44 31v18h170z" />
    <glyph glyph-name="x" unicode="x" horiz-adv-x="503" 
d="M497 18v-18h-225l1 18c31 0 47 10 47 29c0 7 -10 26 -29 55l-66 101l-89 -115c-11 -15 -17 -30 -17 -44c0 -17 14 -26 42 -26v-18h-149v18c19 0 43 19 72 58l119 157l-92 147c-25 41 -59 61 -103 61v18h216v-18c-21 0 -31 -7 -32 -22c-1 -7 6 -22 19 -44l45 -71l40 56
c21 31 32 51 32 61c0 13 -13 20 -40 20v18h160v-18c-18 0 -34 -5 -48 -15c-17 -12 -39 -36 -66 -72l-59 -79l127 -188c31 -46 62 -69 95 -69z" />
    <glyph glyph-name="y" unicode="y" horiz-adv-x="514" 
d="M497 459v-18c-19 0 -32 -6 -41 -18c-7 -9 -17 -30 -30 -61l-185 -452c-29 -72 -88 -122 -141 -122c-36 0 -66 22 -67 49c-1 34 16 51 51 51c27 0 45 -18 66 -18s43 28 66 83l29 70l-143 300c-37 79 -71 118 -102 118v18h211v-18c-33 0 -49 -12 -49 -36
c0 -9 12 -38 35 -88l89 -188l95 234c9 23 14 39 14 50c0 19 -16 28 -47 28v18h149z" />
    <glyph glyph-name="z" unicode="z" horiz-adv-x="463" 
d="M440 459v-18l-308 -407h195c27 0 47 5 60 15c18 13 29 45 33 97h18l-10 -146h-408v24l302 401h-165c-27 0 -46 -6 -57 -17c-15 -15 -23 -41 -24 -76h-18v127h382z" />
    <glyph glyph-name="braceleft" unicode="{" horiz-adv-x="297" 
d="M262 -114c-72 0 -161 24 -161 111v182c0 29 -15 64 -46 72v40c30 6 46 38 46 66v163c0 105 71 119 161 119v-44c-76 0 -86 -21 -86 -96v-144c0 -32 -17 -69 -46 -85c24 -22 46 -59 46 -91v-168c0 -64 22 -83 86 -83v-42z" />
    <glyph glyph-name="bar" unicode="|" horiz-adv-x="228" 
d="M140 572v-730h-58v730h58z" />
    <glyph glyph-name="braceright" unicode="}" horiz-adv-x="297" 
d="M242 251c-31 -8 -46 -43 -46 -72v-182c0 -87 -89 -111 -161 -111v42c64 0 86 19 86 83v168c0 32 22 69 46 91c-29 16 -46 53 -46 85v144c0 75 -10 96 -86 96v44c90 0 161 -14 161 -119v-163c0 -28 16 -60 46 -66v-40z" />
    <glyph glyph-name="asciitilde" unicode="~" horiz-adv-x="398" 
d="M338 380h22c0 -24 -11 -42 -34 -55c-17 -11 -39 -16 -65 -16c-31 0 -62 7 -94 20l-32 16c-13 6 -24 9 -32 9c-27 0 -42 -12 -44 -36h-21c0 9 2 18 7 27c18 34 49 51 94 51c23 0 52 -7 87 -22c36 -14 61 -21 75 -21c23 0 36 9 37 27z" />
    <glyph glyph-name="exclamdown" unicode="&#xa1;" horiz-adv-x="277" 
d="M206 453c0 -31 -27 -55 -60 -55s-60 24 -60 55s27 56 60 56s60 -25 60 -56zM208 -48c0 -60 -21 -90 -63 -90c-43 0 -65 30 -65 90c0 25 4 54 11 89l20 87c7 39 15 111 23 219h21c3 -35 4 -68 7 -103c4 -45 9 -84 15 -116c4 -15 10 -41 18 -78c9 -35 13 -68 13 -98z" />
    <glyph glyph-name="cent" unicode="&#xa2;" horiz-adv-x="500" 
d="M431 183l14 -8c-30 -123 -93 -185 -188 -185c-28 0 -55 7 -82 21l-76 -205h-40l83 226c-55 45 -83 107 -83 186c0 69 21 128 64 177s95 74 154 74c11 0 19 0 26 -1l79 212h40l-81 -219c65 -17 97 -50 97 -101c0 -28 -27 -51 -55 -51c-29 0 -49 24 -49 51
c0 23 -4 40 -11 51l-115 -311c24 -24 51 -36 82 -36c62 0 109 40 141 119zM180 135l110 297c-7 2 -16 3 -26 3c-73 0 -121 -69 -121 -158c0 -54 12 -101 37 -142z" />
    <glyph glyph-name="sterling" unicode="&#xa3;" horiz-adv-x="530" 
d="M484 156l17 -4c-5 -45 -19 -84 -44 -115c-28 -35 -65 -53 -110 -53c-60 0 -116 28 -167 83c-23 -55 -55 -83 -96 -83c-35 0 -64 30 -64 67c0 47 37 81 89 81c11 0 34 -5 42 -5c3 25 5 51 5 80c0 41 -4 87 -11 138h-103v34h98c-4 40 -6 70 -6 91c0 63 16 116 48 157
c36 46 86 69 150 69c40 0 73 -12 98 -35c21 -21 32 -43 32 -66c0 -21 -19 -43 -40 -43c-27 0 -41 20 -42 61c-1 35 -22 52 -63 52c-63 0 -95 -47 -95 -142c0 -33 4 -80 11 -144h136l1 -34h-134l-1 -48c-1 -64 -13 -123 -34 -180c57 -27 113 -41 169 -41c61 0 99 27 114 80z
M147 86c-15 9 -31 14 -46 14c-33 0 -49 -14 -49 -43c0 -28 11 -42 33 -42c29 0 50 24 62 71z" />
    <glyph glyph-name="currency" unicode="&#xa4;" horiz-adv-x="530" 
d="M442 200l78 -75l-30 -29l-78 75c-39 -35 -88 -52 -147 -52s-108 17 -147 52l-78 -75l-30 29l78 75c-37 37 -55 84 -55 141c0 53 18 100 55 141l-78 75l30 29l78 -75c39 35 88 52 147 52s108 -17 147 -52l78 75l30 -29l-78 -75c37 -39 55 -86 55 -141s-18 -102 -55 -141z
M453 341c0 50 -19 93 -56 128s-81 53 -132 53s-96 -18 -133 -53s-55 -77 -55 -128s18 -94 55 -129s81 -52 133 -52c51 0 95 17 132 52s56 78 56 129z" />
    <glyph glyph-name="yen" unicode="&#xa5;" horiz-adv-x="607" 
d="M607 680v-18c-59 0 -102 -28 -128 -85l-25 -55h98v-38h-115l-46 -100h161v-38h-178l-23 -51v-187c0 -71 23 -90 95 -90v-18h-303v18c76 0 96 18 96 90v175l-27 63h-168v38h151l-43 100h-108v38h92l-28 65c-21 50 -57 75 -108 75v18h296v-18c-51 0 -77 -13 -77 -39
c0 -11 5 -29 14 -55l18 -46h154l24 56c6 14 9 27 9 38c0 31 -23 46 -70 46v18h239zM324 337l64 147h-122z" />
    <glyph glyph-name="brokenbar" unicode="&#xa6;" horiz-adv-x="164" 
d="M111 896v-402h-51v402h51zM111 367v-367h-51v367h51z" />
    <glyph glyph-name="section" unicode="&#xa7;" horiz-adv-x="500" 
d="M434 237c0 -33 -12 -66 -35 -99c-21 -31 -48 -54 -81 -71c45 -45 67 -87 67 -124c0 -42 -15 -78 -44 -109s-65 -46 -109 -46c-34 0 -64 11 -91 33s-40 49 -40 81c0 23 18 44 41 44c25 0 38 -15 38 -45c0 -13 -8 -42 -8 -54c0 -23 21 -35 64 -35c23 0 44 9 63 28
c20 18 30 37 30 58c0 36 -23 73 -70 112l-129 105c-47 44 -70 89 -70 135c0 72 39 130 116 173c-44 43 -66 85 -66 126s14 76 43 104c29 29 65 43 108 43c36 0 67 -10 92 -31c27 -23 40 -50 40 -83c0 -23 -18 -44 -41 -44s-42 18 -42 39c0 11 8 37 8 49c0 31 -19 46 -57 46
c-52 0 -95 -36 -95 -84c0 -36 23 -73 69 -112l130 -101c46 -43 69 -89 69 -138zM380 190c0 40 -23 81 -69 122l-118 95c-53 -29 -79 -66 -79 -113c0 -39 23 -78 70 -119l117 -93c53 28 79 64 79 108z" />
    <glyph glyph-name="dieresis" unicode="&#xa8;" horiz-adv-x="285" 
d="M107 800c0 -25 -21 -46 -48 -46s-48 21 -48 46s21 46 48 46s48 -21 48 -46zM283 800c0 -25 -21 -46 -48 -46s-48 21 -48 46s21 46 48 46s48 -21 48 -46z" />
    <glyph glyph-name="copyright" unicode="&#xa9;" horiz-adv-x="760" 
d="M737 341c0 -99 -35 -183 -105 -253c-69 -69 -153 -104 -252 -104c-98 0 -182 35 -253 104c-69 71 -104 155 -104 253s35 182 104 251c71 69 155 104 253 104c99 0 183 -35 252 -104c70 -69 105 -153 105 -251zM706 341c0 89 -32 166 -96 229c-63 63 -140 95 -230 95
c-89 0 -166 -32 -231 -95c-63 -63 -95 -140 -95 -229c0 -90 32 -167 96 -231c65 -63 141 -95 230 -95c91 0 167 31 230 94c64 63 96 140 96 232zM556 227l20 -11c-47 -69 -112 -103 -196 -103c-63 0 -118 21 -163 64s-68 96 -68 158c0 71 22 128 67 171s104 65 175 65
c23 0 54 -6 91 -19c11 -3 17 -5 18 -5c12 0 21 8 26 24h18l10 -142h-18c-19 73 -75 118 -151 118c-101 0 -152 -65 -152 -194c0 -137 56 -206 168 -206c70 0 122 27 155 80z" />
    <glyph glyph-name="ordfeminine" unicode="&#xaa;" horiz-adv-x="320" 
d="M309 454v-23c-33 -25 -59 -37 -78 -37c-21 0 -34 15 -39 46c-43 -31 -80 -46 -112 -46c-35 0 -68 29 -68 65c0 49 60 94 180 133c1 25 -2 45 -7 58c-8 18 -24 27 -49 27c-31 0 -46 -14 -46 -42c0 -27 -11 -41 -32 -41s-32 10 -32 30c0 26 14 45 43 57c21 10 48 15 81 15
c77 0 115 -32 115 -95v-140c0 -15 5 -23 15 -24c1 0 10 6 29 17zM192 464v105c-71 -20 -107 -49 -107 -88c0 -24 21 -44 46 -44c20 0 42 15 61 27z" />
    <glyph glyph-name="guillemotleft" unicode="&#xab;" horiz-adv-x="528" 
d="M350 230l128 -230h-31l-199 230l199 229h31zM152 230l128 -230h-31l-199 230l199 229h31z" />
    <glyph glyph-name="logicalnot" unicode="&#xac;" horiz-adv-x="605" 
d="M20 459h565v-206h-44v162h-521v44z" />
    <glyph glyph-name="registered" unicode="&#xae;" horiz-adv-x="760" 
d="M737 341c0 -99 -35 -183 -105 -253c-69 -69 -153 -104 -252 -104c-98 0 -182 35 -253 104c-69 71 -104 155 -104 253s35 182 104 251c71 69 155 104 253 104c99 0 183 -35 252 -104c70 -69 105 -153 105 -251zM706 341c0 89 -32 166 -96 229c-63 63 -140 95 -230 95
c-89 0 -166 -32 -231 -95c-63 -63 -95 -140 -95 -229c0 -90 32 -167 96 -231c65 -63 141 -95 230 -95c91 0 167 31 230 94c64 63 96 140 96 232zM612 145v-18h-101l-155 203h-40v-117c0 -45 21 -68 63 -68v-18h-193v18c37 0 55 23 55 68v274c0 45 -8 59 -49 59v18h190
c49 0 88 -9 119 -26c34 -19 51 -48 51 -86c0 -57 -39 -95 -117 -113l102 -139c16 -23 28 -37 35 -43c9 -8 22 -12 40 -12zM466 445c0 56 -45 97 -105 97c-16 0 -31 -3 -45 -8v-181h10c93 0 140 31 140 92z" />
    <glyph glyph-name="overscore" unicode="&#xaf;" horiz-adv-x="454" 
d="M360 543v-27h-253v27h253z" />
    <glyph glyph-name="degree" unicode="&#xb0;" horiz-adv-x="400" 
d="M360 543c0 -42 -16 -79 -47 -110s-68 -46 -112 -46c-46 0 -85 15 -116 46c-32 31 -48 68 -48 111c0 42 16 78 47 107c32 30 70 45 114 45s82 -15 114 -45s48 -66 48 -108zM314 543c0 31 -12 57 -35 79s-50 33 -81 33s-58 -11 -81 -33s-34 -48 -34 -78
c0 -32 11 -59 34 -82s51 -34 84 -34s59 11 80 34c22 23 33 50 33 81z" />
    <glyph glyph-name="plusminus" unicode="&#xb1;" horiz-adv-x="568" 
d="M518 558v-82h-193v-175h-88v175h-193v82h193v176h88v-176h193zM496 256v-81h-430v81h430z" />
    <glyph glyph-name="twosuperior" unicode="&#xb2;" horiz-adv-x="275" 
d="M253 200h-224v45c44 35 86 74 128 112c21 19 40 40 40 69c0 46 -36 56 -75 56c-28 0 -65 -10 -87 -30v49c23 16 61 23 87 23c67 0 125 -21 125 -98c0 -39 -32 -72 -60 -95c-36 -31 -71 -64 -109 -92h175v-39z" />
    <glyph glyph-name="threesuperior" unicode="&#xb3;" horiz-adv-x="276" 
d="M252 288c0 -70 -64 -97 -125 -97c-28 0 -70 7 -94 23v48c24 -20 64 -30 94 -30c36 0 75 16 75 57c0 61 -68 60 -112 60v35c37 0 100 3 100 54c0 32 -36 45 -63 45s-65 -8 -87 -26v45c23 15 61 22 87 22c55 0 113 -22 113 -86c0 -36 -38 -60 -70 -68c44 -5 82 -36 82 -82z
" />
    <glyph glyph-name="acute" unicode="&#xb4;" horiz-adv-x="201" 
d="M64 896h126l-151 -177h-28z" />
    <glyph glyph-name="mu" unicode="&#xb5;" horiz-adv-x="525" 
d="M496 101h23c-1 -32 -10 -59 -27 -81c-19 -24 -45 -36 -77 -36c-51 0 -79 32 -83 96c-55 -64 -111 -96 -166 -96c-34 0 -60 13 -79 40h-2c0 -35 3 -70 10 -105c7 -39 11 -63 11 -74c0 -38 -14 -57 -42 -57c-30 0 -45 19 -45 58c0 12 5 39 14 82c10 43 15 89 15 140v391h83
v-281c0 -88 26 -132 78 -132c43 0 84 23 123 68v345h83v-337c0 -17 3 -34 9 -51c7 -22 16 -33 29 -33c25 0 39 21 43 63z" />
    <glyph glyph-name="paragraph" unicode="&#xb6;" horiz-adv-x="539" 
d="M442 668v-862h-38v862h-98v-862h-38v509c-140 0 -238 49 -238 188c0 121 70 193 222 193h260v-28h-70z" />
    <glyph glyph-name="middot" unicode="&#xb7;" horiz-adv-x="190" 
d="M137 238c0 -24 -18 -42 -42 -42c-23 0 -42 18 -42 42c0 23 19 41 42 41c24 0 42 -18 42 -41z" />
    <glyph glyph-name="cedilla" unicode="&#xb8;" horiz-adv-x="346" 
d="M262 -91c0 -39 -27 -59 -81 -59c-23 0 -50 4 -83 13l-1 31c36 -8 64 -12 83 -12c23 0 35 8 35 25c0 21 -20 30 -59 26v61h25v-31c54 0 81 -18 81 -54z" />
    <glyph glyph-name="onesuperior" unicode="&#xb9;" horiz-adv-x="267" 
d="M194 200h-51v270l-82 -73v48l89 73h44v-318z" />
    <glyph glyph-name="ordmasculine" unicode="&#xba;" horiz-adv-x="329" 
d="M318 547c0 -41 -15 -76 -46 -107s-67 -46 -108 -46c-43 0 -80 14 -109 41s-43 61 -43 104c0 45 15 83 44 112c29 30 67 45 114 45c43 0 78 -15 106 -44s42 -64 42 -105zM245 515c0 34 -7 67 -21 98c-18 39 -43 58 -74 58c-43 0 -65 -32 -65 -96c0 -33 6 -65 19 -95
c17 -41 40 -61 69 -61c48 0 72 32 72 96z" />
    <glyph glyph-name="guillemotright" unicode="&#xbb;" horiz-adv-x="528" 
d="M279 459l199 -229l-199 -230h-31l128 230l-128 229h31zM81 459l199 -229l-199 -230h-31l128 230l-128 229h31z" />
    <glyph glyph-name="onequarter" unicode="&#xbc;" horiz-adv-x="588" 
d="M464 607l-242 -694h-66l242 694h66zM200 250h-51v270l-82 -73v48l89 73h44v-318zM580 71h-43v-71h-48v71h-149v51l129 196h68v-205h43v-42zM489 113v170l-110 -170h110z" />
    <glyph glyph-name="onehalf" unicode="&#xbd;" horiz-adv-x="623" 
d="M452 607l-242 -694h-66l242 694h66zM180 250h-51v270l-82 -73v48l89 73h44v-318zM618 0h-224v45c44 35 86 74 128 112c21 19 40 40 40 69c0 46 -36 56 -75 56c-28 0 -65 -10 -87 -30v49c23 16 61 23 87 23c67 0 125 -21 125 -98c0 -39 -32 -72 -60 -95
c-36 -31 -71 -64 -109 -92h175v-39z" />
    <glyph glyph-name="threequarters" unicode="&#xbe;" horiz-adv-x="611" 
d="M255 337c0 -70 -64 -97 -125 -97c-28 0 -70 7 -94 23v48c24 -20 64 -30 94 -30c36 0 75 16 75 57c0 61 -68 60 -112 60v35c37 0 100 3 100 54c0 32 -36 45 -63 45s-65 -8 -87 -26v45c23 15 61 22 87 22c55 0 113 -22 113 -86c0 -36 -38 -60 -70 -68c44 -5 82 -36 82 -82z
M472 607l-242 -694h-66l242 694h66zM588 71h-43v-71h-48v71h-149v51l129 196h68v-205h43v-42zM497 113v170l-110 -170h110z" />
    <glyph glyph-name="questiondown" unicode="&#xbf;" horiz-adv-x="431" 
d="M259 642c0 -29 -25 -54 -56 -54s-56 25 -56 54s25 54 56 54s56 -25 56 -54zM406 146c0 -101 -78 -162 -191 -162c-47 0 -88 12 -123 37c-40 28 -60 67 -60 116c0 41 24 69 56 69c25 0 38 -14 39 -42c1 -9 -5 -24 -16 -44c-11 -17 -16 -31 -16 -42c0 -33 43 -56 94 -56
c75 0 113 44 113 131c0 39 -10 78 -29 119l-53 106c-19 46 -29 94 -29 143h24c0 -43 17 -87 50 -132l91 -114c33 -45 50 -88 50 -129z" />
    <glyph glyph-name="Agrave" unicode="&#xc0;" horiz-adv-x="750" 
d="M742 18v-18h-280v18c49 0 74 14 74 43c0 13 -4 28 -12 46l-51 120h-265l-52 -120c-8 -18 -12 -33 -12 -45c0 -29 26 -44 79 -44v-18h-217v18c39 0 72 30 97 89l253 589h24l249 -589c14 -33 28 -56 42 -68c16 -14 40 -21 71 -21zM223 265h231l-113 274zM417 896l53 -177
h-28l-151 177h126z" />
    <glyph glyph-name="Aacute" unicode="&#xc1;" horiz-adv-x="750" 
d="M742 18v-18h-280v18c49 0 74 14 74 43c0 13 -4 28 -12 46l-51 120h-265l-52 -120c-8 -18 -12 -33 -12 -45c0 -29 26 -44 79 -44v-18h-217v18c39 0 72 30 97 89l253 589h24l249 -589c14 -33 28 -56 42 -68c16 -14 40 -21 71 -21zM223 265h231l-113 274zM314 896h126
l-151 -177h-28z" />
    <glyph glyph-name="Acircumflex" unicode="&#xc2;" horiz-adv-x="750" 
d="M416 906l100 -167h-17l-131 107l-131 -107h-17l100 167h96zM742 18v-18h-280v18c49 0 74 14 74 43c0 13 -4 28 -12 46l-51 120h-265l-52 -120c-8 -18 -12 -33 -12 -45c0 -29 26 -44 79 -44v-18h-217v18c39 0 72 30 97 89l253 589h24l249 -589c14 -33 28 -56 42 -68
c16 -14 40 -21 71 -21zM223 265h231l-113 274z" />
    <glyph glyph-name="Atilde" unicode="&#xc3;" horiz-adv-x="750" 
d="M742 18v-18h-280v18c49 0 74 14 74 43c0 13 -4 28 -12 46l-51 120h-265l-52 -120c-8 -18 -12 -33 -12 -45c0 -29 26 -44 79 -44v-18h-217v18c39 0 72 30 97 89l253 589h24l249 -589c14 -33 28 -56 42 -68c16 -14 40 -21 71 -21zM223 265h231l-113 274zM514 830h22
c0 -24 -11 -42 -33 -55c-19 -11 -41 -16 -66 -16c-31 0 -62 7 -94 20c-11 5 -20 11 -31 16c-13 6 -24 9 -33 9c-27 0 -42 -12 -44 -36h-21c0 9 3 18 8 27c18 34 49 51 93 51c23 0 53 -7 88 -22c36 -14 61 -21 74 -21c23 0 36 9 37 27z" />
    <glyph glyph-name="Adieresis" unicode="&#xc4;" horiz-adv-x="750" 
d="M742 18v-18h-280v18c49 0 74 14 74 43c0 13 -4 28 -12 46l-51 120h-265l-52 -120c-8 -18 -12 -33 -12 -45c0 -29 26 -44 79 -44v-18h-217v18c39 0 72 30 97 89l253 589h24l249 -589c14 -33 28 -56 42 -68c16 -14 40 -21 71 -21zM223 265h231l-113 274zM325 800
c0 -25 -21 -46 -48 -46s-48 21 -48 46s21 46 48 46s48 -21 48 -46zM501 800c0 -25 -21 -46 -48 -46s-48 21 -48 46s21 46 48 46s48 -21 48 -46z" />
    <glyph glyph-name="Aring" unicode="&#xc5;" horiz-adv-x="750" 
d="M742 18v-18h-280v18c49 0 74 14 74 43c0 13 -4 28 -12 46l-51 120h-265l-52 -120c-8 -18 -12 -33 -12 -45c0 -29 26 -44 79 -44v-18h-217v18c39 0 72 30 97 89l253 589h24l249 -589c14 -33 28 -56 42 -68c16 -14 40 -21 71 -21zM223 265h231l-113 274zM431 807
c0 -35 -27 -62 -62 -62s-62 27 -62 62c0 33 27 61 62 61s62 -28 62 -61zM402 807c0 17 -16 33 -33 33c-22 0 -33 -11 -33 -33s11 -33 33 -33c17 0 33 14 33 33z" />
    <glyph glyph-name="AE" unicode="&#xc6;" horiz-adv-x="1065" 
d="M1023 191h24l-61 -191h-526v18c72 0 96 19 96 90v119h-288l-92 -120c-11 -15 -17 -29 -17 -42c0 -31 28 -47 84 -47v-18h-237v18c32 0 71 30 117 89l413 536c-13 13 -38 19 -76 19v18h522l8 -162h-18c-9 44 -24 76 -43 95c-22 22 -54 33 -97 33h-172v-258h147
c68 0 102 29 102 88h18v-230h-18c0 72 -33 108 -100 108h-149v-278c0 -23 19 -42 40 -42h142c88 0 148 52 181 157zM293 265h263v307c0 11 0 19 -1 26z" />
    <glyph glyph-name="Ccedilla" unicode="&#xc7;" horiz-adv-x="685" 
d="M472 -91c0 -39 -27 -59 -81 -59c-23 0 -50 4 -83 13l-1 31c36 -8 64 -12 83 -12c23 0 35 8 35 25c0 21 -20 30 -59 26v52c-93 4 -170 37 -233 100c-67 67 -101 150 -101 247c0 101 35 186 106 257s155 107 251 107c35 0 66 -4 92 -12c17 -5 34 -13 51 -22
c15 -8 25 -12 32 -12c15 0 32 21 37 46h17l17 -231h-24c-7 55 -30 101 -70 139c-39 39 -84 58 -135 58c-75 0 -137 -32 -184 -95c-45 -61 -68 -140 -68 -239c0 -93 26 -168 78 -224c49 -54 112 -81 189 -81c79 0 151 49 214 146l17 -10c-28 -50 -64 -91 -107 -122
c-49 -34 -101 -52 -154 -53v-21c54 0 81 -18 81 -54z" />
    <glyph glyph-name="Egrave" unicode="&#xc8;" horiz-adv-x="625" 
d="M583 191h24l-61 -191h-526v18c72 0 96 19 96 90v464c0 71 -24 90 -96 90v18h522l8 -162h-18c-9 44 -24 76 -43 95c-22 22 -54 33 -97 33h-172v-258h147c68 0 102 29 102 88h18v-230h-18c0 72 -33 108 -100 108h-149v-278c0 -23 19 -42 40 -42h142c88 0 148 52 181 157z
M337 896l53 -177h-28l-151 177h126z" />
    <glyph glyph-name="Eacute" unicode="&#xc9;" horiz-adv-x="625" 
d="M583 191h24l-61 -191h-526v18c72 0 96 19 96 90v464c0 71 -24 90 -96 90v18h522l8 -162h-18c-9 44 -24 76 -43 95c-22 22 -54 33 -97 33h-172v-258h147c68 0 102 29 102 88h18v-230h-18c0 72 -33 108 -100 108h-149v-278c0 -23 19 -42 40 -42h142c88 0 148 52 181 157z
M322 896h126l-151 -177h-28z" />
    <glyph glyph-name="Ecircumflex" unicode="&#xca;" horiz-adv-x="625" 
d="M583 191h24l-61 -191h-526v18c72 0 96 19 96 90v464c0 71 -24 90 -96 90v18h522l8 -162h-18c-9 44 -24 76 -43 95c-22 22 -54 33 -97 33h-172v-258h147c68 0 102 29 102 88h18v-230h-18c0 72 -33 108 -100 108h-149v-278c0 -23 19 -42 40 -42h142c88 0 148 52 181 157z
M356 906l100 -167h-17l-131 107l-131 -107h-17l100 167h96z" />
    <glyph glyph-name="Edieresis" unicode="&#xcb;" horiz-adv-x="625" 
d="M583 191h24l-61 -191h-526v18c72 0 96 19 96 90v464c0 71 -24 90 -96 90v18h522l8 -162h-18c-9 44 -24 76 -43 95c-22 22 -54 33 -97 33h-172v-258h147c68 0 102 29 102 88h18v-230h-18c0 72 -33 108 -100 108h-149v-278c0 -23 19 -42 40 -42h142c88 0 148 52 181 157z
M277 800c0 -25 -21 -46 -48 -46s-48 21 -48 46s21 46 48 46s48 -21 48 -46zM453 800c0 -25 -21 -46 -48 -46s-48 21 -48 46s21 46 48 46s48 -21 48 -46z" />
    <glyph glyph-name="Igrave" unicode="&#xcc;" horiz-adv-x="342" 
d="M319 18v-18h-296v18c72 0 96 19 96 90v464c0 71 -24 90 -96 90v18h296v-18c-72 0 -96 -19 -96 -90v-464c0 -71 24 -90 96 -90zM177 896l53 -177h-28l-151 177h126z" />
    <glyph glyph-name="Iacute" unicode="&#xcd;" horiz-adv-x="342" 
d="M319 18v-18h-296v18c72 0 96 19 96 90v464c0 71 -24 90 -96 90v18h296v-18c-72 0 -96 -19 -96 -90v-464c0 -71 24 -90 96 -90zM144 896h126l-151 -177h-28z" />
    <glyph glyph-name="Icircumflex" unicode="&#xce;" horiz-adv-x="342" 
d="M319 18v-18h-296v18c72 0 96 19 96 90v464c0 71 -24 90 -96 90v18h296v-18c-72 0 -96 -19 -96 -90v-464c0 -71 24 -90 96 -90zM219 906l100 -167h-17l-131 107l-131 -107h-17l100 167h96z" />
    <glyph glyph-name="Idieresis" unicode="&#xcf;" horiz-adv-x="342" 
d="M319 18v-18h-296v18c72 0 96 19 96 90v464c0 71 -24 90 -96 90v18h296v-18c-72 0 -96 -19 -96 -90v-464c0 -71 24 -90 96 -90zM133 800c0 -25 -21 -46 -48 -46s-48 21 -48 46s21 46 48 46s48 -21 48 -46zM309 800c0 -25 -21 -46 -48 -46s-48 21 -48 46s21 46 48 46
s48 -21 48 -46z" />
    <glyph glyph-name="Ntilde" unicode="&#xd1;" horiz-adv-x="739" 
d="M722 680v-18c-72 0 -96 -19 -96 -90v-588h-24l-439 553h-4v-429c0 -71 24 -90 96 -90v-18h-238v18c72 0 96 19 96 90v458c0 56 -50 96 -113 96v18h171l405 -497h4v389c0 71 -24 90 -96 90v18h238zM494 830h22c0 -24 -11 -42 -33 -55c-19 -11 -41 -16 -66 -16
c-31 0 -62 7 -94 20c-11 5 -20 11 -31 16c-13 6 -24 9 -33 9c-27 0 -42 -12 -44 -36h-21c0 9 3 18 8 27c18 34 49 51 93 51c23 0 53 -7 88 -22c36 -14 61 -21 74 -21c23 0 36 9 37 27z" />
    <glyph glyph-name="Ograve" unicode="&#xd2;" horiz-adv-x="506" 
d="M474 243c0 -71 -21 -131 -63 -180s-95 -73 -158 -73s-116 23 -158 68s-63 100 -63 166c0 69 21 127 63 174s95 71 158 71s116 -22 158 -66c42 -43 63 -97 63 -160zM381 196c0 159 -49 239 -148 239c-29 0 -54 -17 -76 -50c-21 -33 -32 -73 -32 -119
c0 -69 13 -126 38 -171c27 -47 63 -71 106 -71c32 0 59 17 80 50c21 35 32 75 32 122zM277 701l53 -177h-28l-151 177h126z" />
    <glyph glyph-name="Oacute" unicode="&#xd3;" horiz-adv-x="506" 
d="M474 243c0 -71 -21 -131 -63 -180s-95 -73 -158 -73s-116 23 -158 68s-63 100 -63 166c0 69 21 127 63 174s95 71 158 71s116 -22 158 -66c42 -43 63 -97 63 -160zM381 196c0 159 -49 239 -148 239c-29 0 -54 -17 -76 -50c-21 -33 -32 -73 -32 -119
c0 -69 13 -126 38 -171c27 -47 63 -71 106 -71c32 0 59 17 80 50c21 35 32 75 32 122zM204 701h126l-151 -177h-28z" />
    <glyph glyph-name="Ocircumflex" unicode="&#xd4;" horiz-adv-x="506" 
d="M474 243c0 -71 -21 -131 -63 -180s-95 -73 -158 -73s-116 23 -158 68s-63 100 -63 166c0 69 21 127 63 174s95 71 158 71s116 -22 158 -66c42 -43 63 -97 63 -160zM381 196c0 159 -49 239 -148 239c-29 0 -54 -17 -76 -50c-21 -33 -32 -73 -32 -119
c0 -69 13 -126 38 -171c27 -47 63 -71 106 -71c32 0 59 17 80 50c21 35 32 75 32 122zM306 711l100 -167h-17l-131 107l-131 -107h-17l100 167h96z" />
    <glyph glyph-name="Otilde" unicode="&#xd5;" horiz-adv-x="746" 
d="M714 344c0 -99 -33 -184 -99 -255c-66 -70 -147 -105 -242 -105s-176 35 -242 105c-66 71 -99 156 -99 255c0 98 33 181 99 249c66 69 147 103 242 103s176 -34 242 -103c66 -68 99 -151 99 -249zM592 344c0 95 -19 172 -57 229c-39 59 -93 89 -162 89s-124 -30 -163 -89
c-37 -57 -56 -134 -56 -229c0 -97 19 -174 56 -233c39 -62 93 -93 163 -93c69 0 123 31 162 93c38 59 57 136 57 233zM510 830h22c0 -24 -11 -42 -33 -55c-19 -11 -41 -16 -66 -16c-31 0 -62 7 -94 20c-11 5 -20 11 -31 16c-13 6 -24 9 -33 9c-27 0 -42 -12 -44 -36h-21
c0 9 3 18 8 27c18 34 49 51 93 51c23 0 53 -7 88 -22c36 -14 61 -21 74 -21c23 0 36 9 37 27z" />
    <glyph glyph-name="Odieresis" unicode="&#xd6;" horiz-adv-x="746" 
d="M714 344c0 -99 -33 -184 -99 -255c-66 -70 -147 -105 -242 -105s-176 35 -242 105c-66 71 -99 156 -99 255c0 98 33 181 99 249c66 69 147 103 242 103s176 -34 242 -103c66 -68 99 -151 99 -249zM592 344c0 95 -19 172 -57 229c-39 59 -93 89 -162 89s-124 -30 -163 -89
c-37 -57 -56 -134 -56 -229c0 -97 19 -174 56 -233c39 -62 93 -93 163 -93c69 0 123 31 162 93c38 59 57 136 57 233zM340 800c0 -25 -21 -46 -48 -46s-48 21 -48 46s21 46 48 46s48 -21 48 -46zM516 800c0 -25 -21 -46 -48 -46s-48 21 -48 46s21 46 48 46s48 -21 48 -46z
" />
    <glyph glyph-name="multiply" unicode="&#xd7;" horiz-adv-x="581" 
d="M347 243l202 -186l-56 -51l-203 186l-201 -186l-56 51l201 186l-201 184l56 52l201 -186l203 186l56 -52z" />
    <glyph glyph-name="Oslash" unicode="&#xd8;" horiz-adv-x="746" 
d="M714 344c0 -99 -33 -184 -99 -255c-66 -70 -147 -105 -242 -105c-49 0 -96 11 -141 32l-45 -100l-26 11l46 102c-53 31 -96 75 -128 131c-31 57 -47 118 -47 184c0 98 33 181 99 249c66 69 147 103 242 103c43 0 83 -7 121 -22l46 102l25 -11l-45 -102
c59 -29 106 -72 141 -129s53 -121 53 -190zM592 344c0 126 -31 217 -93 272l-247 -555c33 -29 73 -43 121 -43c69 0 123 31 162 92c38 59 57 137 57 234zM230 82l246 551c-31 19 -65 29 -103 29c-70 0 -125 -30 -164 -89c-37 -57 -55 -133 -55 -229c0 -116 25 -203 76 -262z
" />
    <glyph glyph-name="Ugrave" unicode="&#xd9;" horiz-adv-x="518" 
d="M512 67l6 -14l-140 -63h-24v96c-15 -26 -36 -49 -64 -68c-27 -19 -53 -28 -78 -28c-37 0 -68 14 -94 42c-25 29 -38 62 -38 101v229c0 61 -16 79 -72 79v18h155v-326c0 -47 41 -83 92 -83c33 0 78 33 99 74v238c0 61 -16 79 -72 79v18h155v-323c0 -60 10 -77 42 -77
c11 0 22 3 33 8zM247 701l53 -177h-28l-151 177h126z" />
    <glyph glyph-name="Uacute" unicode="&#xda;" horiz-adv-x="518" 
d="M512 67l6 -14l-140 -63h-24v96c-15 -26 -36 -49 -64 -68c-27 -19 -53 -28 -78 -28c-37 0 -68 14 -94 42c-25 29 -38 62 -38 101v229c0 61 -16 79 -72 79v18h155v-326c0 -47 41 -83 92 -83c33 0 78 33 99 74v238c0 61 -16 79 -72 79v18h155v-323c0 -60 10 -77 42 -77
c11 0 22 3 33 8zM197 701h126l-151 -177h-28z" />
    <glyph glyph-name="Ucircumflex" unicode="&#xdb;" horiz-adv-x="518" 
d="M512 67l6 -14l-140 -63h-24v96c-15 -26 -36 -49 -64 -68c-27 -19 -53 -28 -78 -28c-37 0 -68 14 -94 42c-25 29 -38 62 -38 101v229c0 61 -16 79 -72 79v18h155v-326c0 -47 41 -83 92 -83c33 0 78 33 99 74v238c0 61 -16 79 -72 79v18h155v-323c0 -60 10 -77 42 -77
c11 0 22 3 33 8zM296 711l100 -167h-17l-131 107l-131 -107h-17l100 167h96z" />
    <glyph glyph-name="Udieresis" unicode="&#xdc;" horiz-adv-x="752" 
d="M743 680v-18c-72 0 -96 -19 -96 -90v-333c0 -75 -21 -135 -63 -180c-48 -50 -117 -75 -208 -75c-83 0 -148 25 -196 76c-45 47 -67 107 -67 181v331c0 71 -24 90 -96 90v18h296v-18c-72 0 -96 -19 -96 -90v-333c0 -59 18 -109 53 -150s81 -61 139 -61s105 21 141 62
c34 39 51 88 51 149v333c0 71 -24 90 -96 90v18h238zM347 800c0 -25 -21 -46 -48 -46s-48 21 -48 46s21 46 48 46s48 -21 48 -46zM523 800c0 -25 -21 -46 -48 -46s-48 21 -48 46s21 46 48 46s48 -21 48 -46z" />
    <glyph glyph-name="germandbls" unicode="&#xdf;" horiz-adv-x="590" 
d="M548 185c0 -52 -17 -98 -50 -137s-76 -59 -127 -59c-26 0 -48 6 -67 17c-21 14 -32 33 -32 58c0 27 17 48 44 48c24 0 40 -9 45 -62c2 -20 12 -30 30 -30c42 0 63 48 63 143c0 59 -19 108 -57 145c-29 28 -70 44 -122 48v29c41 9 67 17 79 26c27 20 41 55 41 105
c0 37 -6 68 -19 93c-17 32 -42 48 -74 48c-57 0 -85 -42 -85 -125v-532h-190v19c32 0 54 4 65 12c19 13 28 37 28 73v351c0 38 12 84 36 137c27 61 78 92 152 92c49 0 90 -12 121 -36c35 -27 52 -64 52 -112c0 -80 -55 -137 -135 -158c51 -13 90 -29 117 -49
c57 -43 85 -91 85 -144z" />
    <glyph glyph-name="agrave" unicode="&#xe0;" horiz-adv-x="445" 
d="M439 92v-34c-27 -45 -63 -68 -107 -68c-17 0 -29 8 -38 25c-8 13 -12 29 -12 48c-35 -29 -54 -46 -59 -49c-25 -16 -53 -24 -84 -24c-65 0 -107 47 -107 115c0 52 28 94 85 127c22 13 77 35 165 66v28c0 75 -27 113 -81 113c-45 0 -68 -23 -68 -70c0 -41 -14 -61 -41 -61
c-25 0 -44 23 -44 54c0 29 17 55 50 76s72 31 119 31c99 0 148 -41 148 -122v-260c0 -23 8 -35 23 -35c17 0 34 13 51 40zM282 96v172c-111 -39 -167 -86 -167 -139c0 -44 32 -83 68 -83c25 0 58 17 99 50zM207 701l53 -177h-28l-151 177h126z" />
    <glyph glyph-name="aacute" unicode="&#xe1;" horiz-adv-x="445" 
d="M439 92v-34c-27 -45 -63 -68 -107 -68c-17 0 -29 8 -38 25c-8 13 -12 29 -12 48c-35 -29 -54 -46 -59 -49c-25 -16 -53 -24 -84 -24c-65 0 -107 47 -107 115c0 52 28 94 85 127c22 13 77 35 165 66v28c0 75 -27 113 -81 113c-45 0 -68 -23 -68 -70c0 -41 -14 -61 -41 -61
c-25 0 -44 23 -44 54c0 29 17 55 50 76s72 31 119 31c99 0 148 -41 148 -122v-260c0 -23 8 -35 23 -35c17 0 34 13 51 40zM282 96v172c-111 -39 -167 -86 -167 -139c0 -44 32 -83 68 -83c25 0 58 17 99 50zM184 701h126l-151 -177h-28z" />
    <glyph glyph-name="acircumflex" unicode="&#xe2;" horiz-adv-x="445" 
d="M439 92v-34c-27 -45 -63 -68 -107 -68c-17 0 -29 8 -38 25c-8 13 -12 29 -12 48c-35 -29 -54 -46 -59 -49c-25 -16 -53 -24 -84 -24c-65 0 -107 47 -107 115c0 52 28 94 85 127c22 13 77 35 165 66v28c0 75 -27 113 -81 113c-45 0 -68 -23 -68 -70c0 -41 -14 -61 -41 -61
c-25 0 -44 23 -44 54c0 29 17 55 50 76s72 31 119 31c99 0 148 -41 148 -122v-260c0 -23 8 -35 23 -35c17 0 34 13 51 40zM282 96v172c-111 -39 -167 -86 -167 -139c0 -44 32 -83 68 -83c25 0 58 17 99 50zM266 711l100 -167h-17l-131 107l-131 -107h-17l100 167h96z" />
    <glyph glyph-name="atilde" unicode="&#xe3;" horiz-adv-x="445" 
d="M439 92v-34c-27 -45 -63 -68 -107 -68c-17 0 -29 8 -38 25c-8 13 -12 29 -12 48c-35 -29 -54 -46 -59 -49c-25 -16 -53 -24 -84 -24c-65 0 -107 47 -107 115c0 52 28 94 85 127c22 13 77 35 165 66v28c0 75 -27 113 -81 113c-45 0 -68 -23 -68 -70c0 -41 -14 -61 -41 -61
c-25 0 -44 23 -44 54c0 29 17 55 50 76s72 31 119 31c99 0 148 -41 148 -122v-260c0 -23 8 -35 23 -35c17 0 34 13 51 40zM282 96v172c-111 -39 -167 -86 -167 -139c0 -44 32 -83 68 -83c25 0 58 17 99 50zM364 635h22c0 -24 -11 -42 -33 -55c-19 -11 -41 -16 -66 -16
c-31 0 -62 7 -94 20c-11 5 -20 11 -31 16c-13 6 -24 9 -33 9c-27 0 -42 -12 -44 -36h-21c0 9 3 18 8 27c18 34 49 51 93 51c23 0 53 -7 88 -22c36 -14 61 -21 74 -21c23 0 36 9 37 27z" />
    <glyph glyph-name="adieresis" unicode="&#xe4;" horiz-adv-x="445" 
d="M439 92v-34c-27 -45 -63 -68 -107 -68c-17 0 -29 8 -38 25c-8 13 -12 29 -12 48c-35 -29 -54 -46 -59 -49c-25 -16 -53 -24 -84 -24c-65 0 -107 47 -107 115c0 52 28 94 85 127c22 13 77 35 165 66v28c0 75 -27 113 -81 113c-45 0 -68 -23 -68 -70c0 -41 -14 -61 -41 -61
c-25 0 -44 23 -44 54c0 29 17 55 50 76s72 31 119 31c99 0 148 -41 148 -122v-260c0 -23 8 -35 23 -35c17 0 34 13 51 40zM282 96v172c-111 -39 -167 -86 -167 -139c0 -44 32 -83 68 -83c25 0 58 17 99 50zM177 605c0 -25 -21 -46 -48 -46s-48 21 -48 46s21 46 48 46
s48 -21 48 -46zM353 605c0 -25 -21 -46 -48 -46s-48 21 -48 46s21 46 48 46s48 -21 48 -46z" />
    <glyph glyph-name="aring" unicode="&#xe5;" horiz-adv-x="445" 
d="M439 92v-34c-27 -45 -63 -68 -107 -68c-17 0 -29 8 -38 25c-8 13 -12 29 -12 48c-35 -29 -54 -46 -59 -49c-25 -16 -53 -24 -84 -24c-65 0 -107 47 -107 115c0 52 28 94 85 127c22 13 77 35 165 66v28c0 75 -27 113 -81 113c-45 0 -68 -23 -68 -70c0 -41 -14 -61 -41 -61
c-25 0 -44 23 -44 54c0 29 17 55 50 76s72 31 119 31c99 0 148 -41 148 -122v-260c0 -23 8 -35 23 -35c17 0 34 13 51 40zM282 96v172c-111 -39 -167 -86 -167 -139c0 -44 32 -83 68 -83c25 0 58 17 99 50zM271 612c0 -35 -27 -62 -62 -62s-62 27 -62 62c0 33 27 61 62 61
s62 -28 62 -61zM242 612c0 17 -16 33 -33 33c-22 0 -33 -11 -33 -33s11 -33 33 -33c17 0 33 14 33 33z" />
    <glyph glyph-name="ae" unicode="&#xe6;" horiz-adv-x="712" 
d="M667 164l18 -3c-12 -48 -37 -88 -76 -121s-80 -50 -122 -50c-76 0 -143 45 -179 114c-9 -19 -17 -33 -26 -41c-35 -29 -55 -46 -60 -49c-25 -16 -53 -24 -83 -24c-65 0 -107 47 -107 115c0 52 28 94 85 127c22 13 77 35 165 66v28c0 75 -27 113 -81 113
c-45 0 -68 -23 -68 -70c0 -41 -14 -61 -41 -61c-25 0 -44 23 -44 54c0 29 17 55 50 76s72 31 119 31c69 0 113 -20 133 -59c37 39 83 59 138 59c53 0 98 -18 133 -54c35 -35 53 -79 53 -131h-312c0 -63 14 -116 42 -159s63 -65 106 -65c35 0 69 10 100 30c31 21 50 46 57 74
zM362 308h208c0 35 -11 65 -32 90s-46 37 -76 37c-25 0 -48 -13 -67 -38s-30 -55 -33 -89zM282 96v172c-111 -39 -167 -86 -167 -139c0 -44 32 -83 68 -83c25 0 58 17 99 50z" />
    <glyph glyph-name="ccedilla" unicode="&#xe7;" horiz-adv-x="450" 
d="M402 180l19 -6c-29 -118 -90 -179 -182 -184c-19 -18 -29 -35 -29 -50c0 -11 5 -17 15 -19h29v-35h-21c-37 0 -55 14 -55 41c0 20 14 41 41 63c-51 3 -96 26 -133 71c-36 44 -54 96 -54 157c0 69 21 128 63 177c43 49 95 74 154 74c47 0 86 -10 115 -31
c31 -21 46 -47 46 -78c0 -28 -27 -51 -55 -51c-29 0 -49 24 -49 51c0 50 -23 75 -70 75c-73 0 -121 -69 -121 -158c0 -61 13 -113 40 -154c27 -42 62 -63 106 -63c62 0 109 40 141 120z" />
    <glyph glyph-name="egrave" unicode="&#xe8;" horiz-adv-x="462" 
d="M417 164l18 -3c-12 -48 -37 -88 -76 -121s-80 -50 -122 -50c-57 0 -105 22 -145 65c-40 44 -60 97 -60 158c0 75 19 136 57 184s88 72 149 72c53 0 98 -18 133 -54c35 -35 53 -79 53 -131h-312c0 -63 14 -116 42 -159s63 -65 106 -65c35 0 69 10 100 30
c31 21 50 46 57 74zM112 308h208c0 35 -11 65 -32 90s-46 37 -76 37c-25 0 -48 -13 -67 -38s-30 -55 -33 -89zM239 701l53 -177h-28l-151 177h126z" />
    <glyph glyph-name="eacute" unicode="&#xe9;" horiz-adv-x="462" 
d="M417 164l18 -3c-12 -48 -37 -88 -76 -121s-80 -50 -122 -50c-57 0 -105 22 -145 65c-40 44 -60 97 -60 158c0 75 19 136 57 184s88 72 149 72c53 0 98 -18 133 -54c35 -35 53 -79 53 -131h-312c0 -63 14 -116 42 -159s63 -65 106 -65c35 0 69 10 100 30
c31 21 50 46 57 74zM112 308h208c0 35 -11 65 -32 90s-46 37 -76 37c-25 0 -48 -13 -67 -38s-30 -55 -33 -89zM193 701h126l-151 -177h-28z" />
    <glyph glyph-name="ecircumflex" unicode="&#xea;" horiz-adv-x="462" 
d="M417 164l18 -3c-12 -48 -37 -88 -76 -121s-80 -50 -122 -50c-57 0 -105 22 -145 65c-40 44 -60 97 -60 158c0 75 19 136 57 184s88 72 149 72c53 0 98 -18 133 -54c35 -35 53 -79 53 -131h-312c0 -63 14 -116 42 -159s63 -65 106 -65c35 0 69 10 100 30
c31 21 50 46 57 74zM112 308h208c0 35 -11 65 -32 90s-46 37 -76 37c-25 0 -48 -13 -67 -38s-30 -55 -33 -89zM276 711l100 -167h-17l-131 107l-131 -107h-17l100 167h96z" />
    <glyph glyph-name="edieresis" unicode="&#xeb;" horiz-adv-x="462" 
d="M417 164l18 -3c-12 -48 -37 -88 -76 -121s-80 -50 -122 -50c-57 0 -105 22 -145 65c-40 44 -60 97 -60 158c0 75 19 136 57 184s88 72 149 72c53 0 98 -18 133 -54c35 -35 53 -79 53 -131h-312c0 -63 14 -116 42 -159s63 -65 106 -65c35 0 69 10 100 30
c31 21 50 46 57 74zM112 308h208c0 35 -11 65 -32 90s-46 37 -76 37c-25 0 -48 -13 -67 -38s-30 -55 -33 -89zM187 605c0 -25 -21 -46 -48 -46s-48 21 -48 46s21 46 48 46s48 -21 48 -46zM363 605c0 -25 -21 -46 -48 -46s-48 21 -48 46s21 46 48 46s48 -21 48 -46z" />
    <glyph glyph-name="igrave" unicode="&#xec;" horiz-adv-x="278" 
d="M272 18v-18h-227v18c29 0 49 7 59 21c9 11 13 34 13 68v216c0 31 -1 50 -4 57c-3 12 -12 18 -26 18c-7 0 -21 -3 -41 -8l-7 18l137 61h24v-362c0 -68 13 -89 72 -89zM151 701l53 -177h-28l-151 177h126z" />
    <glyph glyph-name="iacute" unicode="&#xed;" horiz-adv-x="278" 
d="M258 18v-18h-227v18c29 0 49 7 59 21c9 11 13 34 13 68v216c0 31 -1 50 -4 57c-3 12 -12 18 -26 18c-7 0 -21 -3 -41 -8l-7 18l137 61h24v-362c0 -68 13 -89 72 -89zM105 701h126l-151 -177h-28z" />
    <glyph glyph-name="icircumflex" unicode="&#xee;" horiz-adv-x="278" 
d="M291 18v-18h-227v18c29 0 49 7 59 21c9 11 13 34 13 68v216c0 31 -1 50 -4 57c-3 12 -12 18 -26 18c-7 0 -21 -3 -41 -8l-7 18l137 61h24v-362c0 -68 13 -89 72 -89zM221 711l100 -167h-17l-131 107l-131 -107h-17l100 167h96z" />
    <glyph glyph-name="idieresis" unicode="&#xef;" horiz-adv-x="278" 
d="M283 18v-18h-227v18c29 0 49 7 59 21c9 11 13 34 13 68v216c0 31 -1 50 -4 57c-3 12 -12 18 -26 18c-7 0 -21 -3 -41 -8l-7 18l137 61h24v-362c0 -68 13 -89 72 -89zM121 605c0 -25 -21 -46 -48 -46s-48 21 -48 46s21 46 48 46s48 -21 48 -46zM297 605
c0 -25 -21 -46 -48 -46s-48 21 -48 46s21 46 48 46s48 -21 48 -46z" />
    <glyph glyph-name="ntilde" unicode="&#xf1;" horiz-adv-x="518" 
d="M510 18v-18h-227v18c29 0 49 7 59 21c9 11 13 34 13 68v208c0 61 -22 92 -67 92c-37 0 -76 -22 -117 -66v-234c0 -68 13 -89 72 -89v-18h-227v18c29 0 49 7 59 21c9 11 13 34 13 68v216c0 31 -1 50 -4 57c-3 12 -12 18 -26 18c-7 0 -21 -3 -41 -8l-7 18l137 61h24v-93
c50 62 104 93 162 93c29 0 54 -14 74 -41c21 -27 31 -59 31 -98v-223c0 -68 13 -89 72 -89zM374 635h22c0 -24 -11 -42 -33 -55c-19 -11 -41 -16 -66 -16c-31 0 -62 7 -94 20c-11 5 -20 11 -31 16c-13 6 -24 9 -33 9c-27 0 -42 -12 -44 -36h-21c0 9 3 18 8 27
c18 34 49 51 93 51c23 0 53 -7 88 -22c36 -14 61 -21 74 -21c23 0 36 9 37 27z" />
    <glyph glyph-name="ograve" unicode="&#xf2;" horiz-adv-x="506" 
d="M474 243c0 -71 -21 -131 -63 -180s-95 -73 -158 -73s-116 23 -158 68s-63 100 -63 166c0 69 21 127 63 174s95 71 158 71s116 -22 158 -66c42 -43 63 -97 63 -160zM381 196c0 159 -49 239 -148 239c-29 0 -54 -17 -76 -50c-21 -33 -32 -73 -32 -119
c0 -69 13 -126 38 -171c27 -47 63 -71 106 -71c32 0 59 17 80 50c21 35 32 75 32 122zM246 701l53 -177h-28l-151 177h126z" />
    <glyph glyph-name="oacute" unicode="&#xf3;" horiz-adv-x="506" 
d="M474 243c0 -71 -21 -131 -63 -180s-95 -73 -158 -73s-116 23 -158 68s-63 100 -63 166c0 69 21 127 63 174s95 71 158 71s116 -22 158 -66c42 -43 63 -97 63 -160zM381 196c0 159 -49 239 -148 239c-29 0 -54 -17 -76 -50c-21 -33 -32 -73 -32 -119
c0 -69 13 -126 38 -171c27 -47 63 -71 106 -71c32 0 59 17 80 50c21 35 32 75 32 122zM225 701h126l-151 -177h-28z" />
    <glyph glyph-name="ocircumflex" unicode="&#xf4;" horiz-adv-x="506" 
d="M474 243c0 -71 -21 -131 -63 -180s-95 -73 -158 -73s-116 23 -158 68s-63 100 -63 166c0 69 21 127 63 174s95 71 158 71s116 -22 158 -66c42 -43 63 -97 63 -160zM381 196c0 159 -49 239 -148 239c-29 0 -54 -17 -76 -50c-21 -33 -32 -73 -32 -119
c0 -69 13 -126 38 -171c27 -47 63 -71 106 -71c32 0 59 17 80 50c21 35 32 75 32 122zM296 711l100 -167h-17l-131 107l-131 -107h-17l100 167h96z" />
    <glyph glyph-name="otilde" unicode="&#xf5;" horiz-adv-x="506" 
d="M474 243c0 -71 -21 -131 -63 -180s-95 -73 -158 -73s-116 23 -158 68s-63 100 -63 166c0 69 21 127 63 174s95 71 158 71s116 -22 158 -66c42 -43 63 -97 63 -160zM381 196c0 159 -49 239 -148 239c-29 0 -54 -17 -76 -50c-21 -33 -32 -73 -32 -119
c0 -69 13 -126 38 -171c27 -47 63 -71 106 -71c32 0 59 17 80 50c21 35 32 75 32 122zM384 635h22c0 -24 -11 -42 -33 -55c-19 -11 -41 -16 -66 -16c-31 0 -62 7 -94 20c-11 5 -20 11 -31 16c-13 6 -24 9 -33 9c-27 0 -42 -12 -44 -36h-21c0 9 3 18 8 27c18 34 49 51 93 51
c23 0 53 -7 88 -22c36 -14 61 -21 74 -21c23 0 36 9 37 27z" />
    <glyph glyph-name="odieresis" unicode="&#xf6;" horiz-adv-x="506" 
d="M474 243c0 -71 -21 -131 -63 -180s-95 -73 -158 -73s-116 23 -158 68s-63 100 -63 166c0 69 21 127 63 174s95 71 158 71s116 -22 158 -66c42 -43 63 -97 63 -160zM381 196c0 159 -49 239 -148 239c-29 0 -54 -17 -76 -50c-21 -33 -32 -73 -32 -119
c0 -69 13 -126 38 -171c27 -47 63 -71 106 -71c32 0 59 17 80 50c21 35 32 75 32 122zM207 605c0 -25 -21 -46 -48 -46s-48 21 -48 46s21 46 48 46s48 -21 48 -46zM383 605c0 -25 -21 -46 -48 -46s-48 21 -48 46s21 46 48 46s48 -21 48 -46z" />
    <glyph glyph-name="divide" unicode="&#xf7;" horiz-adv-x="529" 
d="M353 533c0 -43 -36 -76 -83 -76s-83 33 -83 76s36 76 83 76s83 -33 83 -76zM465 392v-80h-392v80h392zM353 161c0 -43 -38 -77 -83 -77s-83 34 -83 77s36 76 83 76s83 -33 83 -76z" />
    <glyph glyph-name="oslash" unicode="&#xf8;" horiz-adv-x="506" 
d="M474 243c0 -71 -21 -131 -63 -180s-95 -73 -158 -73c-25 0 -49 4 -72 12l-20 -51l-20 7l20 52c-80 37 -129 118 -129 214c0 69 21 127 63 174s95 71 158 71c27 0 53 -5 79 -14l18 48l20 -8l-18 -48c76 -37 122 -115 122 -204zM381 196c0 89 -17 154 -50 195l-132 -341
c21 -17 45 -26 70 -26c32 0 59 17 80 50c21 35 32 75 32 122zM182 67l132 341c-22 18 -49 27 -81 27c-29 0 -54 -17 -76 -50c-21 -33 -32 -73 -32 -119c0 -88 19 -154 57 -199z" />
    <glyph glyph-name="ugrave" unicode="&#xf9;" horiz-adv-x="518" 
d="M512 67l6 -14l-140 -63h-24v96c-15 -26 -36 -49 -64 -68c-27 -19 -53 -28 -78 -28c-37 0 -68 14 -94 42c-25 29 -38 62 -38 101v229c0 61 -16 79 -72 79v18h155v-326c0 -47 41 -83 92 -83c33 0 78 33 99 74v238c0 61 -16 79 -72 79v18h155v-323c0 -60 10 -77 42 -77
c11 0 22 3 33 8zM237 701l53 -177h-28l-151 177h126z" />
    <glyph glyph-name="uacute" unicode="&#xfa;" horiz-adv-x="518" 
d="M512 67l6 -14l-140 -63h-24v96c-15 -26 -36 -49 -64 -68c-27 -19 -53 -28 -78 -28c-37 0 -68 14 -94 42c-25 29 -38 62 -38 101v229c0 61 -16 79 -72 79v18h155v-326c0 -47 41 -83 92 -83c33 0 78 33 99 74v238c0 61 -16 79 -72 79v18h155v-323c0 -60 10 -77 42 -77
c11 0 22 3 33 8zM194 701h126l-151 -177h-28z" />
    <glyph glyph-name="ucircumflex" unicode="&#xfb;" horiz-adv-x="518" 
d="M512 67l6 -14l-140 -63h-24v96c-15 -26 -36 -49 -64 -68c-27 -19 -53 -28 -78 -28c-37 0 -68 14 -94 42c-25 29 -38 62 -38 101v229c0 61 -16 79 -72 79v18h155v-326c0 -47 41 -83 92 -83c33 0 78 33 99 74v238c0 61 -16 79 -72 79v18h155v-323c0 -60 10 -77 42 -77
c11 0 22 3 33 8zM296 711l100 -167h-17l-131 107l-131 -107h-17l100 167h96z" />
    <glyph glyph-name="udieresis" unicode="&#xfc;" horiz-adv-x="518" 
d="M512 67l6 -14l-140 -63h-24v96c-15 -26 -36 -49 -64 -68c-27 -19 -53 -28 -78 -28c-37 0 -68 14 -94 42c-25 29 -38 62 -38 101v229c0 61 -16 79 -72 79v18h155v-326c0 -47 41 -83 92 -83c33 0 78 33 99 74v238c0 61 -16 79 -72 79v18h155v-323c0 -60 10 -77 42 -77
c11 0 22 3 33 8zM207 605c0 -25 -21 -46 -48 -46s-48 21 -48 46s21 46 48 46s48 -21 48 -46zM383 605c0 -25 -21 -46 -48 -46s-48 21 -48 46s21 46 48 46s48 -21 48 -46z" />
    <glyph glyph-name="ydieresis" unicode="&#xff;" horiz-adv-x="514" 
d="M497 459v-18c-19 0 -32 -6 -41 -18c-7 -9 -17 -30 -30 -61l-185 -452c-29 -72 -88 -122 -141 -122c-36 0 -66 22 -67 49c-1 34 16 51 51 51c27 0 45 -18 66 -18s43 28 66 83l29 70l-143 300c-37 79 -71 118 -102 118v18h211v-18c-33 0 -49 -12 -49 -36
c0 -9 12 -38 35 -88l89 -188l95 234c9 23 14 39 14 50c0 19 -16 28 -47 28v18h149zM221 605c0 -25 -21 -46 -48 -46s-48 21 -48 46s21 46 48 46s48 -21 48 -46zM397 605c0 -25 -21 -46 -48 -46s-48 21 -48 46s21 46 48 46s48 -21 48 -46z" />
    <glyph glyph-name="dotlessi" unicode="&#x131;" horiz-adv-x="278" 
d="M258 18v-18h-227v18c29 0 49 7 59 21c9 11 13 34 13 68v216c0 31 -1 50 -4 57c-3 12 -12 18 -26 18c-7 0 -21 -3 -41 -8l-7 18l137 61h24v-362c0 -68 13 -89 72 -89z" />
    <glyph glyph-name="Lslash" unicode="&#x141;" horiz-adv-x="628" 
d="M590 190l20 -5l-59 -185h-531v18c72 0 96 19 96 90v172l-65 -56l-19 22l84 74v252c0 71 -24 90 -96 90v18h296v-18c-72 0 -96 -19 -96 -90v-162l59 51l20 -22l-79 -69v-285c0 -28 18 -51 39 -51h127c103 0 171 52 204 156z" />
    <glyph glyph-name="lslash" unicode="&#x142;" horiz-adv-x="342" 
d="M319 18v-18h-296v18c72 0 96 19 96 90v174l-68 -58l-19 22l87 76v250c0 71 -24 90 -96 90v18h296v-18c-72 0 -96 -19 -96 -90v-159l56 48l20 -22l-76 -66v-265c0 -71 24 -90 96 -90z" />
    <glyph glyph-name="OE" unicode="&#x152;" horiz-adv-x="1175" 
d="M1133 191h24l-61 -191h-430v159c-31 -54 -71 -96 -121 -127c-53 -32 -111 -48 -172 -48c-95 0 -176 35 -242 105c-66 71 -99 156 -99 255c0 98 33 181 99 249c66 69 147 103 242 103c61 0 119 -16 172 -47c51 -30 91 -71 121 -123v154h426l8 -162h-18
c-9 44 -24 76 -43 95c-22 22 -54 33 -97 33h-172v-258h147c68 0 102 29 102 88h18v-230h-18c0 72 -33 108 -100 108h-149v-278c0 -23 19 -42 40 -42h142c88 0 148 52 181 157zM592 344c0 95 -19 172 -57 229c-39 59 -93 89 -162 89s-124 -30 -163 -89
c-37 -57 -56 -134 -56 -229c0 -97 19 -174 56 -233c39 -62 93 -93 163 -93c69 0 123 31 162 93c38 59 57 136 57 233z" />
    <glyph glyph-name="oe" unicode="&#x153;" horiz-adv-x="828" 
d="M783 164l18 -3c-12 -48 -37 -88 -76 -121s-80 -50 -122 -50c-73 0 -131 34 -172 101c-43 -67 -103 -101 -178 -101c-63 0 -116 23 -158 68s-63 100 -63 166c0 69 21 127 63 174s95 71 158 71c79 0 141 -33 184 -98c39 65 95 98 167 98c53 0 98 -18 133 -54
c35 -35 53 -79 53 -131h-312c0 -63 14 -116 42 -159s63 -65 106 -65c35 0 69 10 100 30c31 21 50 46 57 74zM478 308h208c0 35 -11 65 -32 90s-46 37 -76 37c-25 0 -48 -13 -67 -38s-30 -55 -33 -89zM381 196c0 159 -49 239 -148 239c-29 0 -54 -17 -76 -50
c-21 -33 -32 -73 -32 -119c0 -69 13 -126 38 -171c27 -47 63 -71 106 -71c32 0 59 17 80 50c21 35 32 75 32 122z" />
    <glyph glyph-name="Scaron" unicode="&#x160;" horiz-adv-x="560" 
d="M510 179c0 -55 -20 -101 -59 -138c-42 -38 -98 -57 -168 -57c-35 0 -70 7 -106 20c-31 12 -52 18 -62 18c-17 0 -28 -13 -32 -38h-18v230h18c5 -60 29 -107 70 -142c39 -33 85 -50 138 -50c35 0 65 10 90 31c26 21 39 48 39 81c0 45 -31 87 -94 126l-174 100
c-63 44 -94 95 -94 153c0 52 19 96 56 131s86 52 146 52c23 0 51 -5 85 -16c4 -1 15 -6 34 -14c14 -5 24 -8 31 -8c19 0 37 21 37 38h18v-237h-19c-12 125 -78 199 -186 199c-35 0 -65 -12 -89 -36c-22 -21 -33 -46 -33 -73c0 -39 32 -78 96 -117l180 -104
c64 -45 96 -95 96 -149zM303 812h30l-48 -85h-48l-48 85h30l42 -55z" />
    <glyph glyph-name="scaron" unicode="&#x161;" horiz-adv-x="402" 
d="M367 129c0 -81 -59 -139 -160 -139c-19 0 -42 4 -68 11c-25 8 -41 12 -46 12c-10 0 -17 -4 -21 -13h-18v159h18c5 -37 21 -69 48 -96c27 -26 56 -39 89 -39c43 0 76 30 76 66c0 31 -20 57 -61 80c-37 21 -74 41 -113 61c-41 29 -61 65 -61 110c0 76 54 128 135 128
c19 0 39 -3 61 -9c23 -6 37 -9 43 -9c11 0 18 6 21 18h18v-153h-18c-2 35 -14 64 -37 87c-23 24 -50 36 -80 36c-48 0 -81 -28 -81 -61c0 -31 22 -57 66 -80c41 -20 82 -40 123 -61c44 -29 66 -65 66 -108zM234 602h30l-48 -85h-48l-48 85h29l43 -55z" />
    <glyph glyph-name="Zcaron" unicode="&#x17d;" horiz-adv-x="622" 
d="M353 812h30l-48 -85h-48l-48 85h30l42 -55zM580 178h18l-32 -178h-556v17l438 624h-210c-51 0 -86 -9 -107 -28c-21 -18 -35 -53 -42 -104h-18l15 171h511l-451 -641h275c68 0 130 59 159 139z" />
    <glyph glyph-name="zcaron" unicode="&#x17e;" horiz-adv-x="463" 
d="M274 602h30l-48 -85h-48l-48 85h29l43 -55zM442 459v-18l-308 -407h195c26 0 46 5 60 15c18 13 29 45 33 97h18l-10 -146h-408v24l302 401h-165c-27 0 -46 -6 -57 -17c-15 -15 -23 -41 -24 -76h-18v127h382z" />
    <glyph glyph-name="circumflex" unicode="&#x2c6;" horiz-adv-x="296" 
d="M196 906l100 -167h-17l-131 107l-131 -107h-17l100 167h96z" />
    <glyph glyph-name="caron" unicode="&#x2c7;" horiz-adv-x="328" 
d="M213 739h-96l-100 167h17l131 -107l131 107h17z" />
    <glyph glyph-name="ring" unicode="&#x2da;" horiz-adv-x="196" 
d="M161 807c0 -35 -27 -62 -62 -62s-62 27 -62 62c0 33 27 61 62 61s62 -28 62 -61zM132 807c0 17 -16 33 -33 33c-22 0 -33 -11 -33 -33s11 -33 33 -33c17 0 33 14 33 33z" />
    <glyph glyph-name="ogonek" unicode="&#x2db;" horiz-adv-x="346" 
d="M224 -101v-49h-29c-51 0 -76 19 -76 57c0 28 21 59 63 93h28c-31 -28 -47 -53 -47 -75c0 -15 7 -23 22 -26h39z" />
    <glyph glyph-name="tilde" unicode="&#x2dc;" horiz-adv-x="404" 
d="M334 830h22c0 -24 -11 -42 -33 -55c-19 -11 -41 -16 -66 -16c-31 0 -62 7 -94 20c-11 5 -20 11 -31 16c-13 6 -24 9 -33 9c-27 0 -42 -12 -44 -36h-21c0 9 3 18 8 27c18 34 49 51 93 51c23 0 53 -7 88 -22c36 -14 61 -21 74 -21c23 0 36 9 37 27z" />
    <glyph glyph-name="hungarumlaut" unicode="&#x2dd;" horiz-adv-x="341" 
d="M64 896h126l-151 -177h-28zM204 896h126l-151 -177h-28z" />
    <glyph glyph-name="sheva" unicode="&#x5b0;" 
 />
    <glyph glyph-name="hataf_segol" unicode="&#x5b1;" 
 />
    <glyph glyph-name="hataf_patah" unicode="&#x5b2;" 
 />
    <glyph glyph-name="hataf_qamats" unicode="&#x5b3;" 
 />
    <glyph glyph-name="hiriq" unicode="&#x5b4;" 
 />
    <glyph glyph-name="tsere" unicode="&#x5b5;" 
 />
    <glyph glyph-name="segol" unicode="&#x5b6;" 
 />
    <glyph glyph-name="patah" unicode="&#x5b7;" 
 />
    <glyph glyph-name="qamats" unicode="&#x5b8;" 
 />
    <glyph glyph-name="holam" unicode="&#x5b9;" 
d="M40 595h-80v76h80v-76z" />
    <glyph glyph-name="qubuts" unicode="&#x5bb;" 
 />
    <glyph glyph-name="dagesh" unicode="&#x5bc;" 
d="M40 228h-80v76h80v-76z" />
    <glyph glyph-name="meteg" unicode="&#x5bd;" 
d="M14 -241h-28v154h28v-154z" />
    <glyph glyph-name="maqaf" unicode="&#x5be;" horiz-adv-x="469" 
d="M413 464h-357v61h357v-61z" />
    <glyph glyph-name="rafe" unicode="&#x5bf;" 
d="M127 604h-254v43h254v-43z" />
    <glyph glyph-name="pasek" unicode="&#x5c0;" horiz-adv-x="168" 
d="M108 -130h-48v747h48v-747z" />
    <glyph glyph-name="shindot" unicode="&#x5c1;" 
d="M40 598h-80v76h80v-76z" />
    <glyph glyph-name="sindot" unicode="&#x5c2;" 
d="M40 604h-80v76h80v-76z" />
    <glyph glyph-name="sof_pasuk" unicode="&#x5c3;" horiz-adv-x="275" 
d="M176 313h-92v95h92v-95zM176 0h-92v95h92v-95z" />
    <glyph glyph-name="upper_dot" 
d="M-50 689c0 28 22 50 50 50s50 -22 50 -50s-22 -50 -50 -50s-50 22 -50 50z" />
    <glyph glyph-name="lower_dot" unicode="&#x5c5;" 
d="M-50 -348c0 28 22 50 50 50s50 -22 50 -50s-22 -50 -50 -50s-50 22 -50 50z" />
    <glyph glyph-name="alef" unicode="&#x5d0;" horiz-adv-x="585" 
d="M545 0h-103c-37 59 -75 118 -113 176c-25 37 -50 74 -77 109c-7 0 -17 -3 -24 -6c-46 -21 -60 -74 -65 -120l-15 -159h-88c5 54 10 109 16 163c7 66 34 125 95 158c11 6 26 12 38 14c-52 66 -112 128 -169 190h113c66 -72 133 -146 191 -225c50 5 66 62 73 103
s13 81 19 122h87c-6 -39 -11 -78 -17 -117c-13 -86 -37 -138 -127 -158z" />
    <glyph glyph-name="bet" unicode="&#x5d1;" horiz-adv-x="514" 
d="M480 0h-430v75h266v375h-266v75h356v-450h74v-75z" />
    <glyph glyph-name="gimel" unicode="&#x5d2;" horiz-adv-x="392" 
d="M327 0h-81l-12 176c-38 -83 -80 -191 -189 -191v96h18c84 0 160 139 160 214v8c0 49 -6 98 -8 147h-141v75h222z" />
    <glyph glyph-name="dalet" unicode="&#x5d3;" horiz-adv-x="493" 
d="M455 450h-73v-450h-90v450h-267v75h430v-75z" />
    <glyph glyph-name="he" unicode="&#x5d4;" horiz-adv-x="590" 
d="M515 0h-90v450h-355v75h445v-525zM168 0h-90v316h90v-316z" />
    <glyph glyph-name="vav" unicode="&#x5d5;" horiz-adv-x="293" 
d="M218 0h-90v450h-90v75h180v-525z" />
    <glyph glyph-name="zayin" unicode="&#x5d6;" horiz-adv-x="332" 
d="M303 450h-24c-72 0 -96 -99 -96 -155c0 -94 19 -203 40 -295h-90c-15 82 -36 195 -36 276c0 64 31 144 92 174h-144v75h258v-75z" />
    <glyph glyph-name="het" unicode="&#x5d7;" horiz-adv-x="592" 
d="M522 0h-90v332c0 78 -44 118 -121 118h-146v-450h-90v525h245c116 0 202 -62 202 -184v-341z" />
    <glyph glyph-name="tet" unicode="&#x5d8;" horiz-adv-x="600" 
d="M555 326c0 -171 -109 -326 -291 -326h-152l-52 525h90l44 -450h58c145 0 214 119 214 251c0 64 -32 139 -106 139c-23 0 -71 -6 -87 -28v78c22 16 62 22 88 22c122 0 194 -94 194 -211z" />
    <glyph glyph-name="yod" unicode="&#x5d9;" horiz-adv-x="285" 
d="M215 242h-90v208h-90v75h180v-283z" />
    <glyph glyph-name="final_kaf" unicode="&#x5da;" horiz-adv-x="464" 
d="M389 -160h-90v610h-274v75h364v-685z" />
    <glyph glyph-name="kaf" unicode="&#x5db;" horiz-adv-x="475" 
d="M430 262c0 -147 -61 -262 -223 -262h-157v75h149c114 0 141 91 141 187s-27 188 -141 188h-149v75h157c163 0 223 -116 223 -263z" />
    <glyph glyph-name="lamed" unicode="&#x5dc;" horiz-adv-x="473" 
d="M451 525l-212 -525h-95l184 450h-298v222h90v-147h331z" />
    <glyph glyph-name="final_mem" unicode="&#x5dd;" horiz-adv-x="602" 
d="M537 0h-457v525h254c114 0 203 -61 203 -182v-343zM447 75v260c0 79 -49 115 -125 115h-152v-375h277z" />
    <glyph glyph-name="mem" unicode="&#x5de;" horiz-adv-x="631" 
d="M561 0h-251v75h161v251c0 79 -39 124 -120 124h-102l-82 -450h-88l82 450h-105v75h303c125 0 202 -65 202 -193v-332z" />
    <glyph glyph-name="final_nun" unicode="&#x5df;" horiz-adv-x="293" 
d="M218 -160h-90v610h-90v75h180v-685z" />
    <glyph glyph-name="nun" unicode="&#x5e0;" horiz-adv-x="331" 
d="M256 0h-201v75h111v375h-100v75h190v-525z" />
    <glyph glyph-name="samech" unicode="&#x5e1;" horiz-adv-x="626" 
d="M566 525c0 -245 -32 -525 -343 -525h-108l-55 525h506zM475 450h-323l45 -375h50c199 0 228 222 228 375z" />
    <glyph glyph-name="ayin" unicode="&#x5e2;" horiz-adv-x="573" 
d="M513 525l-13 -173c-11 -140 -25 -352 -212 -352h-225v75h117l-125 450h89l122 -450h22c87 0 98 81 108 150c5 40 9 80 12 120l15 180h90z" />
    <glyph glyph-name="final_pe" unicode="&#x5e3;" horiz-adv-x="557" 
d="M488 -160h-90v496c0 75 -48 114 -121 114h-122v-207h-90v282h221c125 0 202 -67 202 -193v-492z" />
    <glyph glyph-name="pe" unicode="&#x5e4;" horiz-adv-x="566" 
d="M496 0h-426v75h336v261c0 76 -47 114 -121 114h-125v-207h-90v282h223c125 0 203 -65 203 -193v-332z" />
    <glyph glyph-name="final_tsadi" unicode="&#x5e5;" horiz-adv-x="496" 
d="M463 525l-48 -172c-21 -76 -63 -138 -149 -138v-375h-90c0 103 1 206 1 309c0 68 -4 84 -35 145l-117 231h97l121 -243c51 0 72 36 84 80l45 163h91z" />
    <glyph glyph-name="tsadi" unicode="&#x5e6;" horiz-adv-x="526" 
d="M486 525l-39 -148c-15 -57 -69 -132 -134 -132l154 -245h-414v75h271l-284 450h101l138 -221c44 0 70 48 80 85c12 45 23 91 35 136h92z" />
    <glyph glyph-name="qof" unicode="&#x5e7;" horiz-adv-x="618" 
d="M594 525l-213 -525h-94l184 450h-401v75h524zM175 -160h-90v475h90v-475z" />
    <glyph glyph-name="resh" unicode="&#x5e8;" horiz-adv-x="477" 
d="M407 0h-90v336c0 76 -47 114 -121 114h-171v75h180c126 0 202 -66 202 -193v-332z" />
    <glyph glyph-name="shin" unicode="&#x5e9;" horiz-adv-x="707" 
d="M647 525l-19 -188c-16 -162 -93 -337 -281 -337h-222l-65 525h88l33 -255h39c54 0 66 59 73 101c8 51 13 103 18 154h88c-6 -57 -12 -115 -19 -172c-10 -85 -69 -143 -155 -143h-37l15 -135h121c150 0 205 128 217 258l18 192h88z" />
    <glyph glyph-name="tav" unicode="&#x5ea;" horiz-adv-x="670" 
d="M595 0h-90v450h-254v-336c0 -69 -49 -114 -117 -114h-84v75h73c22 0 38 16 38 38v337h-102v75h536v-525z" />
    <glyph glyph-name="vav_vav" unicode="&#x5f0;" horiz-adv-x="505" 
d="M218 0h-90v450h-90v75h180v-525zM430 0h-90v450h-90v75h180v-525z" />
    <glyph glyph-name="vav_yod" unicode="&#x5f1;" horiz-adv-x="506" 
d="M431 0h-90v450h-90v75h180v-525zM218 242h-90v208h-90v75h180v-283z" />
    <glyph glyph-name="yod_yod" unicode="&#x5f2;" horiz-adv-x="510" 
d="M218 242h-90v208h-90v75h180v-283zM435 242h-90v208h-90v75h180v-283z" />
    <glyph glyph-name="Geresh" unicode="&#x5f3;" horiz-adv-x="216" 
d="M178 525l-84 -246h-47l52 246h79z" />
    <glyph glyph-name="Gershayim" unicode="&#x5f4;" horiz-adv-x="372" 
d="M323 525l-74 -245h-47l42 245h79zM170 525l-74 -245h-47l42 245h79z" />
    <glyph glyph-name="afii61664" unicode="&#x200c;" horiz-adv-x="21" 
d="M22 795v-795h-22v795h22z" />
    <glyph glyph-name="afii301" unicode="&#x200d;" horiz-adv-x="21" 
d="M26 783l52 -53l-15 -14l-41 41v-757h-22v757l-40 -41l-16 14l54 53l-54 52l16 15l51 -53l52 53l15 -15z" />
    <glyph glyph-name="afii299" unicode="&#x200e;" horiz-adv-x="21" 
d="M81 850l67 -67l-67 -67l-15 15l42 42h-86v-773h-22v795h106l-40 40z" />
    <glyph glyph-name="afii300" unicode="&#x200f;" horiz-adv-x="21" 
d="M23 795v-795h-22v773h-85l42 -42l-16 -15l-67 67l67 67l16 -15l-41 -40h106z" />
    <glyph glyph-name="endash" unicode="&#x2013;" horiz-adv-x="469" 
d="M413 236h-357v61h357v-61z" />
    <glyph glyph-name="emdash" unicode="&#x2014;" horiz-adv-x="585" 
d="M529 236h-473v61h473v-61z" />
    <glyph glyph-name="quoteleft" unicode="&#x2018;" horiz-adv-x="216" 
d="M165 379h-47l-84 246h79z" />
    <glyph glyph-name="quoteright" unicode="&#x2019;" horiz-adv-x="216" 
d="M178 625l-84 -246h-47l52 246h79z" />
    <glyph glyph-name="quotesinglbase" unicode="&#x201a;" horiz-adv-x="216" 
d="M178 105l-84 -246h-47l52 246h79z" />
    <glyph glyph-name="quotedblleft" unicode="&#x201c;" horiz-adv-x="359" 
d="M165 379h-47l-84 246h79zM316 379h-47l-84 246h79z" />
    <glyph glyph-name="quotedblright" unicode="&#x201d;" horiz-adv-x="342" 
d="M178 625l-84 -246h-47l52 246h79zM331 625l-84 -246h-47l52 246h79z" />
    <glyph glyph-name="quotedblbase" unicode="&#x201e;" horiz-adv-x="372" 
d="M323 105l-74 -245h-47l42 245h79zM170 105l-74 -245h-47l42 245h79z" />
    <glyph glyph-name="dagger" unicode="&#x2020;" horiz-adv-x="486" 
d="M456 449c0 -29 -27 -49 -56 -49c-15 0 -40 7 -73 20s-58 20 -76 20c0 -53 17 -93 52 -120c-35 -129 -52 -306 -52 -532h-20c0 226 -17 403 -52 532c35 27 52 67 52 120c-17 0 -43 -7 -76 -20s-57 -20 -73 -20c-29 0 -56 20 -56 49s27 48 56 48c16 0 40 -7 73 -20
s59 -20 76 -20c0 20 -8 48 -24 85s-24 66 -24 87c0 35 23 67 58 67s58 -32 58 -67c0 -21 -8 -50 -24 -87s-24 -65 -24 -85c18 0 43 7 76 20s58 20 73 20c29 0 56 -19 56 -48z" />
    <glyph glyph-name="daggerdbl" unicode="&#x2021;" horiz-adv-x="432" 
d="M412 1c0 -29 -17 -44 -50 -44c-15 0 -37 6 -66 18c-29 11 -52 17 -69 17c-1 -17 6 -42 21 -77s22 -58 22 -71c0 -31 -23 -56 -54 -56s-54 25 -54 56c0 13 7 36 22 71s22 60 21 77c-17 0 -40 -6 -69 -17c-29 -12 -51 -18 -66 -18c-33 0 -50 15 -50 44c0 30 17 45 50 45
c15 0 37 -6 66 -18s52 -18 69 -18c-3 38 -20 67 -50 86c33 39 50 89 50 150c0 56 -17 103 -50 142c30 19 47 48 50 86c-17 0 -40 -6 -69 -18s-51 -18 -66 -18c-33 0 -50 15 -50 45c0 29 17 44 50 44c15 0 37 -6 66 -18c29 -11 52 -17 69 -17c-1 17 -8 42 -22 76
c-14 35 -21 59 -21 72c0 31 23 56 54 56s54 -25 54 -56c0 -13 -7 -36 -22 -71s-22 -60 -21 -77c17 0 40 6 69 17c29 12 51 18 66 18c33 0 50 -15 50 -44c0 -30 -17 -45 -50 -45c-15 0 -37 6 -66 18s-52 18 -69 18c3 -38 20 -67 50 -86c-33 -39 -50 -86 -50 -142
c0 -61 17 -111 50 -150c-30 -19 -47 -48 -50 -86c17 0 40 6 69 18s51 18 66 18c33 0 50 -15 50 -45z" />
    <glyph glyph-name="bullet" unicode="&#x2022;" horiz-adv-x="449" 
d="M430 297c0 -56 -20 -104 -60 -145c-40 -40 -88 -60 -144 -60c-57 0 -105 20 -146 60c-40 40 -60 88 -60 145s20 105 60 144c41 39 90 59 146 59s104 -20 144 -60c40 -39 60 -87 60 -143z" />
    <glyph glyph-name="ellipsis" unicode="&#x2026;" horiz-adv-x="565" 
d="M547 52c-24 -21 -46 -46 -67 -69l-67 69l69 68c21 -23 42 -46 65 -68zM357 52c-24 -21 -46 -46 -67 -69l-67 69l69 68c21 -23 42 -46 65 -68zM167 52c-24 -21 -46 -46 -67 -69l-67 69l69 68c21 -23 42 -46 65 -68z" />
    <glyph glyph-name="perthousand" unicode="&#x2030;" horiz-adv-x="1179" 
d="M1148 165c0 -49 -12 -90 -37 -125c-27 -37 -62 -56 -107 -56c-44 0 -79 19 -106 56c-25 35 -37 76 -37 125s12 92 37 129c27 39 63 59 107 59c45 0 80 -20 107 -59c24 -36 36 -79 36 -129zM818 165c0 -49 -12 -90 -37 -125c-27 -37 -62 -56 -107 -56
c-44 0 -79 19 -106 56c-25 35 -37 76 -37 125s12 92 37 129c27 39 63 59 107 59c45 0 80 -20 107 -59c24 -36 36 -79 36 -129zM646 696h45l-488 -712h-45zM317 508c0 -49 -12 -90 -37 -125c-27 -37 -62 -56 -107 -56c-44 0 -79 19 -106 56c-25 35 -37 76 -37 125
s12 92 37 129c27 39 63 59 107 59c45 0 80 -20 107 -59c24 -36 36 -79 36 -129zM1069 165c0 37 -4 69 -11 97c-11 43 -28 65 -52 65c-25 0 -44 -21 -55 -64c-7 -28 -11 -61 -11 -98c0 -103 21 -155 64 -155s65 52 65 155zM739 165c0 37 -4 69 -11 97c-11 43 -28 65 -52 65
c-25 0 -44 -21 -55 -64c-7 -28 -11 -61 -11 -98c0 -103 21 -155 64 -155s65 52 65 155zM238 508c0 37 -4 69 -11 97c-11 43 -28 65 -52 65c-25 0 -44 -21 -55 -64c-7 -28 -11 -61 -11 -98c0 -103 21 -155 64 -155s65 52 65 155z" />
    <glyph glyph-name="guilsinglleft" unicode="&#x2039;" horiz-adv-x="330" 
d="M152 230l128 -230h-31l-199 230l199 229h31z" />
    <glyph glyph-name="guilsinglright" unicode="&#x203a;" horiz-adv-x="330" 
d="M81 459l199 -229l-199 -230h-31l128 230l-128 229h31z" />
    <glyph glyph-name="peseta" unicode="&#x20a7;" horiz-adv-x="968" 
d="M21 645v17h251c100 0 176 -33 219 -97c15 -21 23 -49 26 -84c15 17 26 32 35 46c7 12 16 32 27 61h16v-142h84v-28h-84v-300c0 -25 1 -40 4 -46c5 -15 17 -23 29 -23c9 0 19 3 48 32v68h18c6 -31 14 -56 24 -74c20 -36 63 -59 95 -59c43 0 75 31 75 70c0 17 -7 34 -20 51
c-13 16 -42 36 -85 61s-71 46 -86 65s-22 41 -22 67c0 36 12 66 36 90c24 25 54 37 89 37c16 0 38 -4 66 -12c11 -3 18 -5 21 -5s8 2 16 5h21v-134h-17c-15 85 -57 119 -110 119c-37 0 -67 -30 -67 -63c0 -17 8 -34 23 -49c11 -11 40 -30 86 -56c45 -26 76 -50 93 -71
c15 -21 23 -45 23 -70c0 -38 -13 -70 -40 -96c-27 -25 -61 -38 -102 -38c-15 0 -36 4 -63 12c-16 5 -28 7 -36 7c-6 0 -11 -2 -16 -6h-22v42c-37 -43 -60 -55 -87 -55c-41 0 -72 30 -72 106v24v301h-10c-17 -38 -39 -66 -65 -85c-35 -25 -76 -37 -125 -37
c-25 0 -61 8 -105 21v-216c0 -60 26 -85 87 -84v-17h-278v17c71 5 82 16 87 91v458c0 52 -22 78 -87 79zM212 615v-266c24 -12 46 -18 66 -18c64 0 119 57 119 145c0 92 -55 148 -135 148c-15 0 -31 -3 -50 -9z" />
    <glyph glyph-name="sheqel" unicode="&#x20aa;" horiz-adv-x="930" 
d="M822 132c0 -86 -59 -132 -142 -132h-363v357h87v-292h251c57 0 80 26 80 82v378h87v-393zM613 169h-87v213c0 53 -28 78 -81 78h-250v-460h-87v525h356c77 0 149 -35 149 -121v-235z" />
    <glyph glyph-name="Euro" unicode="&#x20ac;" horiz-adv-x="615" 
d="M589 52c-50 -42 -115 -68 -186 -68c-130 0 -239 86 -276 207h-98l34 60h54c-1 10 -1 15 -1 20c0 6 0 12 1 23h-88l34 60h65c38 120 147 204 275 204c71 0 136 -26 186 -68l-31 -53c-41 38 -95 61 -155 61c-93 0 -173 -57 -211 -144h320l-36 -60h-299
c-1 -11 -1 -17 -1 -23c0 -5 0 -10 1 -20h275l-35 -60h-227c37 -89 118 -147 213 -147c60 0 114 23 155 61c9 -16 11 -21 14 -26s6 -9 17 -27z" />
    <glyph glyph-name="trademark" unicode="&#x2122;" horiz-adv-x="1034" 
d="M1006 293v-18h-203v18c25 0 41 7 50 22c7 11 10 29 10 56v234h-2l-153 -330h-17l-153 325h-2v-229c0 -27 4 -47 12 -58c9 -13 25 -20 48 -20v-18h-151v18c23 0 39 7 48 20c8 11 12 31 12 58v214c0 55 -13 77 -60 77v18h146l138 -288l133 288h144v-18
c-25 0 -42 -7 -51 -22c-6 -10 -9 -28 -9 -55v-214c0 -27 4 -47 12 -58c9 -13 25 -20 48 -20zM401 680l9 -102h-16c-7 29 -20 49 -40 59c-15 7 -39 11 -74 11h-22v-277c0 -27 3 -45 9 -56c9 -15 26 -22 52 -22v-18h-201v18c25 0 41 8 49 23c5 11 8 29 8 55v277h-18
c-36 0 -61 -3 -75 -10c-21 -10 -34 -30 -39 -60h-19l12 102h365z" />
    <glyph glyph-name="minus" unicode="&#x2212;" horiz-adv-x="440" 
d="M413 236h-357v61h357v-61z" />
    <glyph glyph-name="final_kaf_sheva" unicode="&#xe802;" horiz-adv-x="464" 
d="M389 -160h-90v610h-274v75h364v-685zM211 166h-80v76h80v-76zM213 62h-80v76h80v-76z" />
    <glyph glyph-name="final_kaf_qamats" unicode="&#xe803;" horiz-adv-x="464" 
d="M389 -160h-90v610h-274v75h364v-685z" />
    <glyph glyph-name="lamed_holam" unicode="&#xe804;" horiz-adv-x="473" 
d="M578 525l-212 -525h-95l184 450h-298v222h90v-147h331zM110 569h-80v76h80v-76z" />
    <glyph glyph-name="lamed_holam_dagesh" unicode="&#xe805;" horiz-adv-x="473" 
d="M571 525l-212 -525h-95l184 450h-298v222h90v-147h331zM314 299h-80v76h80v-76zM110 568h-80v76h80v-76z" />
    <glyph glyph-name="prop_0" unicode="&#xe890;" horiz-adv-x="480" 
d="M434 262c0 -129 -39 -277 -194 -277s-193 150 -193 278s40 277 194 277s193 -151 193 -278zM351 263c0 72 -10 209 -110 209s-111 -136 -111 -209s11 -209 111 -209s110 137 110 209z" />
    <glyph glyph-name="prop_1" unicode="&#xe891;" horiz-adv-x="480" 
d="M268 0h-85v450l-136 -121v79l148 122h73v-530z" />
    <glyph glyph-name="prop_2" unicode="&#xe892;" horiz-adv-x="480" 
d="M420 0h-373v75c74 59 144 123 214 187c34 32 66 66 66 115c0 77 -59 93 -124 93c-47 0 -109 -17 -145 -50v82c38 26 101 38 145 38c111 0 208 -35 208 -163c0 -65 -54 -120 -100 -159c-60 -52 -119 -106 -182 -153h291v-65z" />
    <glyph glyph-name="prop_3" unicode="&#xe893;" horiz-adv-x="480" 
d="M412 146c0 -116 -107 -161 -208 -161c-47 0 -117 11 -157 39v79c40 -33 107 -50 157 -50c60 0 125 27 125 96c0 101 -114 100 -187 100v58c62 0 167 4 167 89c0 54 -60 75 -105 75s-109 -13 -145 -43v76c38 25 101 36 145 36c92 0 188 -36 188 -143
c0 -61 -63 -101 -116 -114c73 -8 136 -60 136 -137z" />
    <glyph glyph-name="prop_4" unicode="&#xe894;" horiz-adv-x="480" 
d="M448 119h-72v-119h-81v119h-248v85l215 326h114v-342h72v-69zM295 188v283l-183 -283h183z" />
    <glyph glyph-name="prop_5" unicode="&#xe895;" horiz-adv-x="480" 
d="M412 160c0 -124 -102 -175 -213 -175c-37 0 -121 6 -152 32v81c41 -28 103 -44 151 -44c70 0 131 30 131 108c0 82 -61 102 -132 102c-38 0 -105 -9 -136 -35v296h329v-65h-249v-141c19 7 57 8 77 8c113 0 194 -42 194 -167z" />
    <glyph glyph-name="prop_6" unicode="&#xe896;" horiz-adv-x="480" 
d="M440 165c0 -113 -81 -180 -191 -180c-158 0 -202 135 -202 271c0 140 58 284 219 284c33 0 110 -4 140 -23v-75c-19 25 -107 29 -133 29c-121 0 -146 -98 -146 -198c22 44 74 73 122 73c118 0 191 -60 191 -181zM357 166c0 69 -37 114 -108 114c-65 0 -105 -46 -105 -109
c0 -62 39 -117 105 -117c73 0 108 40 108 112z" />
    <glyph glyph-name="prop_7" unicode="&#xe897;" horiz-adv-x="480" 
d="M426 450c-91 -143 -167 -283 -205 -450h-91c29 118 83 228 146 331c25 40 52 79 78 119h-307v75h379v-75z" />
    <glyph glyph-name="prop_8" unicode="&#xe898;" horiz-adv-x="480" 
d="M421 143c0 -113 -84 -158 -187 -158c-102 0 -187 43 -187 156c0 63 41 123 104 137c-54 14 -90 64 -90 119c0 97 86 143 173 143s172 -46 172 -143c0 -54 -35 -105 -89 -119c63 -13 104 -72 104 -135zM325 394c0 50 -44 82 -91 82s-91 -32 -91 -82c0 -54 39 -87 91 -87
s91 33 91 87zM339 151c0 60 -47 97 -105 97c-57 0 -105 -37 -105 -97c0 -67 40 -102 105 -102s105 35 105 102z" />
    <glyph glyph-name="prop_9" unicode="&#xe899;" horiz-adv-x="480" 
d="M426 288c0 -152 -49 -303 -226 -303c-31 0 -97 7 -120 33v78c24 -31 84 -42 120 -42c108 0 146 98 146 191v8c-22 -40 -71 -65 -116 -65c-111 0 -183 58 -183 173c0 106 80 179 185 179c148 0 194 -123 194 -252zM333 361c0 63 -35 110 -101 110
c-67 0 -102 -46 -102 -110s37 -107 102 -107s101 44 101 107z" />
    <glyph glyph-name="fi" unicode="&#xfb01;" horiz-adv-x="538" 
d="M518 18v-18h-484v18c29 0 49 7 59 21c9 11 13 34 13 68v318h-88v34h88v69c0 97 67 168 186 168c46 0 83 -6 110 -19c31 -15 47 -36 47 -62s-14 -39 -41 -39c-24 0 -40 7 -49 22l-18 42c-10 15 -28 22 -53 22c-57 0 -99 -38 -99 -86v-117h257v-352c0 -68 13 -89 72 -89z
M363 107v246c0 30 -1 49 -4 56c-3 11 -11 16 -26 16h-144v-318c0 -68 13 -89 72 -89h30c29 0 49 7 59 21c9 11 13 34 13 68z" />
    <glyph glyph-name="fl" unicode="&#xfb02;" horiz-adv-x="587" 
d="M563 18v-18h-227v18c29 0 49 7 59 21c9 11 13 34 13 68v443c0 25 0 42 -1 49c-6 -15 -19 -23 -39 -23c-21 0 -38 14 -53 43s-34 43 -57 43c-35 0 -69 -41 -69 -86v-117h112v-34h-112v-318c0 -68 13 -89 72 -89v-18h-227v18c29 0 49 7 59 21c9 11 13 34 13 68v318h-88v34
h88v69c0 46 15 86 45 119c31 33 68 49 111 49c60 0 102 -12 127 -35l78 35h24v-589c0 -68 13 -89 72 -89z" />
    <glyph glyph-name="yod_yod_patah" unicode="&#xfb1f;" horiz-adv-x="510" 
d="M218 242h-90v208h-90v75h180v-283zM435 242h-90v208h-90v75h180v-283z" />
    <glyph glyph-name="alt_ayin" unicode="&#xfb20;" horiz-adv-x="573" 
d="M513 525l-13 -173c-11 -140 -25 -352 -212 -352h-225v75h117l-125 450h89l122 -450h22c87 0 98 81 108 150c5 40 9 80 12 120l15 180h90z" />
    <glyph glyph-name="wide_alef" unicode="&#xfb21;" horiz-adv-x="585" 
d="M545 0h-103c-37 59 -75 118 -113 176c-25 37 -50 74 -77 109c-7 0 -17 -3 -24 -6c-46 -21 -60 -74 -65 -120l-15 -159h-88c5 54 10 109 16 163c7 66 34 125 95 158c11 6 26 12 38 14c-52 66 -112 128 -169 190h113c66 -72 133 -146 191 -225c50 5 66 62 73 103
s13 81 19 122h87c-6 -39 -11 -78 -17 -117c-13 -86 -37 -138 -127 -158z" />
    <glyph glyph-name="wide_dalet" unicode="&#xfb22;" horiz-adv-x="768" 
d="M730 450h-73v-450h-90v450h-542v75h705v-75z" />
    <glyph glyph-name="wide_he" unicode="&#xfb23;" horiz-adv-x="885" 
d="M810 0h-90v450h-650v75h740v-525zM168 0h-90v316h90v-316z" />
    <glyph glyph-name="wide_kaf" unicode="&#xfb24;" horiz-adv-x="737" 
d="M692 262c0 -147 -61 -262 -223 -262h-419v75h411c114 0 141 91 141 187s-27 188 -141 188h-411v75h419c163 0 223 -116 223 -263z" />
    <glyph glyph-name="wide_lamed" unicode="&#xfb25;" horiz-adv-x="699" 
d="M677 525l-212 -525h-95l184 450h-524v222h90v-147h557z" />
    <glyph glyph-name="wide_mem" unicode="&#xfb26;" horiz-adv-x="870" 
d="M805 0h-725v525h522c114 0 203 -61 203 -182v-343zM715 75v260c0 79 -49 115 -125 115h-420v-375h545z" />
    <glyph glyph-name="wide_resh" unicode="&#xfb27;" horiz-adv-x="808" 
d="M738 0h-90v336c0 76 -47 114 -121 114h-502v75h511c126 0 202 -66 202 -193v-332z" />
    <glyph glyph-name="wide_tav" unicode="&#xfb28;" horiz-adv-x="983" 
d="M908 0h-90v450h-567v-336c0 -69 -49 -114 -117 -114h-84v75h73c22 0 38 16 38 38v337h-102v75h849v-525z" />
    <glyph glyph-name="uniFB29" unicode="&#xfb29;" horiz-adv-x="460" 
d="M428 317v-108h-396v108h144v142h108v-142h144z" />
    <glyph glyph-name="shin_shindot" unicode="&#xfb2a;" horiz-adv-x="707" 
d="M647 525l-19 -188c-16 -162 -93 -337 -281 -337h-222l-65 525h88l33 -255h39c54 0 66 59 73 101c8 51 13 103 18 154h88c-6 -57 -12 -115 -19 -172c-10 -85 -69 -143 -155 -143h-37l15 -135h121c150 0 205 128 217 258l18 192h88zM642 571h-80v76h80v-76z" />
    <glyph glyph-name="shin_sindot" unicode="&#xfb2b;" horiz-adv-x="707" 
d="M648 525l-19 -188c-16 -162 -93 -337 -281 -337h-222l-65 525h88l33 -255h39c54 0 66 59 73 101c8 51 13 103 18 154h88c-6 -57 -12 -115 -19 -172c-10 -85 -69 -143 -155 -143h-37l15 -135h121c150 0 205 128 217 258l18 192h88zM140 568h-80v76h80v-76z" />
    <glyph glyph-name="shin_shindot_dagesh" unicode="&#xfb2c;" horiz-adv-x="707" 
d="M643 569h-80v76h80v-76zM647 525l-19 -188c-16 -162 -93 -337 -281 -337h-222l-65 525h88l33 -255h39c54 0 66 59 73 101c8 51 13 103 18 154h88c-6 -57 -12 -115 -19 -172c-10 -85 -69 -143 -155 -143h-37l15 -135h121c150 0 205 128 217 258l18 192h88zM447 163h-80v76
h80v-76z" />
    <glyph glyph-name="shin_sindot_dagesh" unicode="&#xfb2d;" horiz-adv-x="707" 
d="M141 571h-80v76h80v-76zM647 525l-19 -188c-16 -162 -93 -337 -281 -337h-222l-65 525h88l33 -255h39c54 0 66 59 73 101c8 51 13 103 18 154h88c-6 -57 -12 -115 -19 -172c-10 -85 -69 -143 -155 -143h-37l15 -135h121c150 0 205 128 217 258l18 192h88zM447 163h-80v76
h80v-76z" />
    <glyph glyph-name="alef_patah" unicode="&#xfb2e;" horiz-adv-x="585" 
d="M545 0h-103c-37 59 -75 118 -113 176c-25 37 -50 74 -77 109c-7 0 -17 -3 -24 -6c-46 -21 -60 -74 -65 -120l-15 -159h-88c5 54 10 109 16 163c7 66 34 125 95 158c11 6 26 12 38 14c-52 66 -112 128 -169 190h113c66 -72 133 -146 191 -225c50 5 66 62 73 103
s13 81 19 122h87c-6 -39 -11 -78 -17 -117c-13 -86 -37 -138 -127 -158z" />
    <glyph glyph-name="alef_qamats" unicode="&#xfb2f;" horiz-adv-x="585" 
d="M545 0h-103c-37 59 -75 118 -113 176c-25 37 -50 74 -77 109c-7 0 -17 -3 -24 -6c-46 -21 -60 -74 -65 -120l-15 -159h-88c5 54 10 109 16 163c7 66 34 125 95 158c11 6 26 12 38 14c-52 66 -112 128 -169 190h113c66 -72 133 -146 191 -225c50 5 66 62 73 103
s13 81 19 122h87c-6 -39 -11 -78 -17 -117c-13 -86 -37 -138 -127 -158z" />
    <glyph glyph-name="alef_hiriq" unicode="&#xfb30;" horiz-adv-x="585" 
d="M545 0h-103c-37 59 -75 118 -113 176c-25 37 -50 74 -77 109c-7 0 -17 -3 -24 -6c-46 -21 -60 -74 -65 -120l-15 -159h-88c5 54 10 109 16 163c7 66 34 125 95 158c11 6 26 12 38 14c-52 66 -112 128 -169 190h113c66 -72 133 -146 191 -225c50 5 66 62 73 103
s13 81 19 122h87c-6 -39 -11 -78 -17 -117c-13 -86 -37 -138 -127 -158zM330 -162h-80v76h80v-76z" />
    <glyph glyph-name="bet_dagesh" unicode="&#xfb31;" horiz-adv-x="514" 
d="M480 0h-430v75h266v375h-266v75h356v-450h74v-75zM224 223h-80v76h80v-76z" />
    <glyph glyph-name="gimel_dagesh" unicode="&#xfb32;" horiz-adv-x="392" 
d="M327 0h-81l-12 176c-38 -83 -80 -191 -189 -191v96h18c84 0 160 139 160 214v8c0 49 -6 98 -8 147h-141v75h222zM169 264h-80v76h80v-76z" />
    <glyph glyph-name="dalet_dagesh" unicode="&#xfb33;" horiz-adv-x="493" 
d="M455 450h-73v-450h-90v450h-267v75h430v-75zM204 211h-80v76h80v-76z" />
    <glyph glyph-name="he_dagesh" unicode="&#xfb34;" horiz-adv-x="590" 
d="M515 0h-90v450h-355v75h445v-525zM168 0h-90v316h90v-316zM335 239h-80v76h80v-76z" />
    <glyph glyph-name="vav_dagesh" unicode="&#xfb35;" horiz-adv-x="293" 
d="M252 0h-90v450h-90v75h180v-525zM118 203h-80v76h80v-76z" />
    <glyph glyph-name="zayin_dagesh" unicode="&#xfb36;" horiz-adv-x="332" 
d="M354 450h-24c-72 0 -96 -99 -96 -155c0 -94 19 -203 40 -295h-90c-15 82 -36 195 -36 276c0 64 31 144 92 174h-144v75h258v-75zM125 209h-80v76h80v-76z" />
    <glyph glyph-name="tet_dagesh" unicode="&#xfb38;" horiz-adv-x="600" 
d="M555 326c0 -171 -109 -326 -291 -326h-152l-52 525h90l44 -450h58c145 0 214 119 214 251c0 64 -32 139 -106 139c-23 0 -71 -6 -87 -28v78c22 16 62 22 88 22c122 0 194 -94 194 -211zM351 233h-80v76h80v-76z" />
    <glyph glyph-name="yod_dagesh" unicode="&#xfb39;" horiz-adv-x="285" 
d="M248 242h-90v208h-90v75h180v-283zM115 316h-80v76h80v-76z" />
    <glyph glyph-name="final_kaf_dagesh" unicode="&#xfb3a;" horiz-adv-x="464" 
d="M389 -160h-90v610h-274v75h364v-685zM210 141h-80v76h80v-76z" />
    <glyph glyph-name="kaf_dagesh" unicode="&#xfb3b;" horiz-adv-x="475" 
d="M430 262c0 -147 -61 -262 -223 -262h-157v75h149c114 0 141 91 141 187s-27 188 -141 188h-149v75h157c163 0 223 -116 223 -263zM222 220h-80v76h80v-76z" />
    <glyph glyph-name="lamed_dagesh" unicode="&#xfb3c;" horiz-adv-x="473" 
d="M451 525l-212 -525h-95l184 450h-298v222h90v-147h331zM191 277h-80v76h80v-76z" />
    <glyph glyph-name="mem_dagesh" unicode="&#xfb3e;" horiz-adv-x="631" 
d="M561 0h-251v75h161v251c0 79 -39 124 -120 124h-102l-82 -450h-88l82 450h-105v75h303c125 0 202 -65 202 -193v-332zM387 201h-80v76h80v-76z" />
    <glyph glyph-name="nun_dagesh" unicode="&#xfb40;" horiz-adv-x="331" 
d="M260 0h-201v75h111v375h-100v75h190v-525zM135 224h-80v76h80v-76z" />
    <glyph glyph-name="samech_dagesh" unicode="&#xfb41;" horiz-adv-x="626" 
d="M566 525c0 -245 -32 -525 -343 -525h-108l-55 525h506zM475 450h-323l45 -375h50c199 0 228 222 228 375zM357 233h-80v76h80v-76z" />
    <glyph glyph-name="final_pe_dagesh" unicode="&#xfb43;" horiz-adv-x="557" 
d="M488 -160h-90v496c0 75 -48 114 -121 114h-122v-207h-90v282h221c125 0 202 -67 202 -193v-492zM303 291h-80v76h80v-76z" />
    <glyph glyph-name="pe_dagesh" unicode="&#xfb44;" horiz-adv-x="566" 
d="M496 0h-426v75h336v261c0 76 -47 114 -121 114h-125v-207h-90v282h223c125 0 203 -65 203 -193v-332zM311 289h-80v76h80v-76z" />
    <glyph glyph-name="tsadi_dagesh" unicode="&#xfb46;" horiz-adv-x="526" 
d="M486 525l-39 -148c-15 -57 -69 -132 -134 -132l154 -245h-414v75h271l-284 450h101l138 -221c44 0 70 48 80 85c12 45 23 91 35 136h92zM197 140h-80v76h80v-76z" />
    <glyph glyph-name="qof_dagesh" unicode="&#xfb47;" horiz-adv-x="618" 
d="M594 525l-213 -525h-94l184 450h-401v75h524zM175 -160h-90v475h90v-475zM324 266h-80v76h80v-76z" />
    <glyph glyph-name="resh_dagesh" unicode="&#xfb48;" horiz-adv-x="477" 
d="M407 0h-90v336c0 76 -47 114 -121 114h-171v75h180c126 0 202 -66 202 -193v-332zM213 200h-80v76h80v-76z" />
    <glyph glyph-name="shin_dagesh" unicode="&#xfb49;" horiz-adv-x="707" 
d="M647 525l-19 -188c-16 -162 -93 -337 -281 -337h-222l-65 525h88l33 -255h39c54 0 66 59 73 101c8 51 13 103 18 154h88c-6 -57 -12 -115 -19 -172c-10 -85 -69 -143 -155 -143h-37l15 -135h121c150 0 205 128 217 258l18 192h88zM447 163h-80v76h80v-76z" />
    <glyph glyph-name="tav_dagesh" unicode="&#xfb4a;" horiz-adv-x="670" 
d="M595 0h-90v450h-254v-336c0 -69 -49 -114 -117 -114h-84v75h73c22 0 38 16 38 38v337h-102v75h536v-525zM424 201h-80v76h80v-76z" />
    <glyph glyph-name="vav_holam" unicode="&#xfb4b;" horiz-adv-x="293" 
d="M218 0h-90v450h-90v75h180v-525zM171 570h-80v76h80v-76z" />
    <glyph glyph-name="bet_rafe" unicode="&#xfb4c;" horiz-adv-x="514" 
d="M480 0h-430v75h266v375h-266v75h356v-450h74v-75zM361 571h-254v43h254v-43z" />
    <glyph glyph-name="kaf_rafe" unicode="&#xfb4d;" horiz-adv-x="475" 
d="M430 262c0 -147 -61 -262 -223 -262h-157v75h149c114 0 141 91 141 187s-27 188 -141 188h-149v75h157c163 0 223 -116 223 -263zM334 570h-254v43h254v-43z" />
    <glyph glyph-name="pe_rafe" unicode="&#xfb4e;" horiz-adv-x="566" 
d="M496 0h-426v75h336v261c0 76 -47 114 -121 114h-125v-207h-90v282h223c125 0 203 -65 203 -193v-332zM394 568h-254v43h254v-43z" />
    <glyph glyph-name="alef_lamed" horiz-adv-x="585" 
d="M144 525c70 -72 142 -146 200 -225c50 5 66 62 73 103s13 81 19 122h87l-17 -117c-13 -86 -37 -138 -127 -158l166 -250h-103c-37 59 -75 118 -113 176c-25 37 -50 74 -77 109c-93 113 -132 175 -192 238v149h84v-147z" />
    <glyph glyph-name="uniFFFC" unicode="&#xfffc;" horiz-adv-x="1000" 
d="M1000 719v-157h-49l-109 108v49h158zM719 719v-49h-157v49h157zM1000 438v-157h-49v157h49zM870 532v-234c0 -78 -34 -117 -103 -117c-28 0 -50 7 -67 22l35 38c9 -8 19 -12 32 -12c31 0 46 22 46 67v236h57zM438 719v-49h-157v49h157zM1000 158v-158h-158v49l109 109h49
zM695 289c0 -68 -45 -102 -134 -102h-117v345h115c81 0 121 -30 121 -91c0 -30 -14 -53 -43 -70c39 -15 58 -42 58 -82zM158 719v-49l-109 -108h-49v157h158zM719 49v-49h-157v49h157zM417 359c0 -113 -55 -178 -155 -178s-153 65 -153 178s53 179 153 179s155 -66 155 -179
zM49 438v-157h-49v157h49zM438 49v-49h-157v49h157zM158 49v-49h-158v158h49zM624 436c0 32 -27 48 -80 48h-44v-94h50c49 0 74 15 74 46zM638 289c0 35 -28 53 -83 53h-55v-108h61c51 0 77 18 77 55zM360 359c0 87 -33 131 -98 131c-64 0 -96 -44 -96 -131s32 -130 96 -130
c65 0 98 43 98 130z" />
    <glyph glyph-name="qamats_qatan" unicode="&#x5c7;" 
d="M89 -126h-69l3 -162h-47l3 162h-67v41h177v-41z" />
    <glyph glyph-name="alef_dagesh" horiz-adv-x="585" 
d="M545 0h-103c-37 59 -75 118 -113 176c-25 37 -50 74 -77 109c-7 0 -17 -3 -24 -6c-46 -21 -60 -74 -65 -120l-15 -159h-88c5 54 10 109 16 163c7 66 34 125 95 158c11 6 26 12 38 14c-52 66 -112 128 -169 190h113c66 -72 133 -146 191 -225c50 5 66 62 73 103
s13 81 19 122h87c-6 -39 -11 -78 -17 -117c-13 -86 -37 -138 -127 -158zM298 73h-80v76h80v-76z" />
    <glyph glyph-name="alt_lamed" horiz-adv-x="473" 
d="M451 525l-212 -525h-95l184 450h-298v222h90v-147h331z" />
    <glyph glyph-name="alef_lamed_tsere" horiz-adv-x="585" 
d="M144 525c70 -72 142 -146 200 -225c50 5 66 62 73 103s13 81 19 122h87l-17 -117c-13 -86 -37 -138 -127 -158l166 -250h-103c-37 59 -75 118 -113 176c-25 37 -50 74 -77 109c-93 113 -132 175 -192 238v149h84v-147zM369 -157h-80v76h80v-76zM252 -157h-80v76h80v-76z
" />
    <glyph glyph-name="alef_lamed_segol" horiz-adv-x="585" 
d="M144 525c70 -72 142 -146 200 -225c50 5 66 62 73 103s13 81 19 122h87l-17 -117c-13 -86 -37 -138 -127 -158l166 -250h-103c-37 59 -75 118 -113 176c-25 37 -50 74 -77 109c-93 113 -132 175 -192 238v149h84v-147zM319 -251h-80v76h80v-76zM374 -158h-80v76h80v-76z
M257 -158h-80v76h80v-76z" />
    <glyph glyph-name="alef_lamed_hatafseg" horiz-adv-x="585" 
d="M144 525c70 -72 142 -146 200 -225c50 5 66 62 73 103s13 81 19 122h87l-17 -117c-13 -86 -37 -138 -127 -158l166 -250h-103c-37 59 -75 118 -113 176c-25 37 -50 74 -77 109c-93 113 -132 175 -192 238v149h84v-147zM201 -160h-80v76h80v-76zM315 -159h-80v76h80v-76z
M428 -257h-80v76h80v-76zM426 -160h-80v76h80v-76zM259 -251h-80v76h80v-76z" />
    <glyph glyph-name="hatafsegol_meteg" 
d="M70 -241h-28v154h28v-154zM-39 -253h-80v76h80v-76zM16 -160h-80v76h80v-76zM-101 -160h-80v76h80v-76zM180 -162h-80v76h80v-76zM182 -257h-80v76h80v-76z" />
    <glyph glyph-name="hatafpatah_meteg" 
d="M48 -243h-28v154h28v-154zM156 -164h-80v76h80v-76zM158 -263h-80v76h80v-76z" />
    <glyph glyph-name="hatafqamats_meteg" 
d="M42 -243h-28v154h28v-154zM150 -162h-80v76h80v-76zM152 -260h-80v76h80v-76z" />
    <glyph glyph-name="sheva_na" 
d="M50 -180h-97v93h97v-93zM50 -314h-97v93h97v-93z" />
    <glyph glyph-name="nbspace" unicode="&#xa0;" horiz-adv-x="250" 
 />
    <glyph glyph-name="alef_dag_hazak" horiz-adv-x="585" 
d="M545 0h-103c-37 59 -75 118 -113 176c-25 37 -50 74 -77 109c-7 0 -17 -3 -24 -6c-46 -21 -60 -74 -65 -120l-15 -159h-88c5 54 10 109 16 163c7 66 34 125 95 158c11 6 26 12 38 14c-52 66 -112 128 -169 190h113c66 -72 133 -146 191 -225c50 5 66 62 73 103
s13 81 19 122h87c-6 -39 -11 -78 -17 -117c-13 -86 -37 -138 -127 -158z" />
    <glyph glyph-name="bet_dag_hazak" horiz-adv-x="514" 
d="M480 0h-430v75h266v375h-266v75h356v-450h74v-75z" />
    <glyph glyph-name="gimel_dag_hazak" horiz-adv-x="392" 
d="M327 0h-81l-12 176c-38 -83 -80 -191 -189 -191v96h18c84 0 160 139 160 214v8c0 49 -6 98 -8 147h-141v75h222z" />
    <glyph glyph-name="dalet_dag_hazak" horiz-adv-x="493" 
d="M455 450h-73v-450h-90v450h-267v75h430v-75z" />
    <glyph glyph-name="vav_dag_hazak" horiz-adv-x="293" 
d="M218 0h-90v450h-90v75h180v-525z" />
    <glyph glyph-name="zayin_dag_hazak" horiz-adv-x="332" 
d="M303 450h-24c-72 0 -96 -99 -96 -155c0 -94 19 -203 40 -295h-90c-15 82 -36 195 -36 276c0 64 31 144 92 174h-144v75h258v-75z" />
    <glyph glyph-name="tet_dag_hazak" horiz-adv-x="600" 
d="M555 326c0 -171 -109 -326 -291 -326h-152l-52 525h90l44 -450h58c145 0 214 119 214 251c0 64 -32 139 -106 139c-23 0 -71 -6 -87 -28v78c22 16 62 22 88 22c122 0 194 -94 194 -211z" />
    <glyph glyph-name="yod_dag_hazak" horiz-adv-x="285" 
d="M215 242h-90v208h-90v75h180v-283z" />
    <glyph glyph-name="fina_kaf_dag_hazak" horiz-adv-x="464" 
d="M389 -160h-90v610h-274v75h364v-685z" />
    <glyph glyph-name="kaf_dag_hazak" horiz-adv-x="475" 
d="M430 262c0 -147 -61 -262 -223 -262h-157v75h149c114 0 141 91 141 187s-27 188 -141 188h-149v75h157c163 0 223 -116 223 -263z" />
    <glyph glyph-name="lamed_dag_hazak" horiz-adv-x="473" 
d="M451 525l-212 -525h-95l184 450h-298v222h90v-147h331z" />
    <glyph glyph-name="mem_dag_hazak" horiz-adv-x="631" 
d="M561 0h-251v75h161v251c0 79 -39 124 -120 124h-102l-82 -450h-88l82 450h-105v75h303c125 0 202 -65 202 -193v-332z" />
    <glyph glyph-name="nun_dag_hazak" horiz-adv-x="331" 
d="M256 0h-201v75h111v375h-100v75h190v-525z" />
    <glyph glyph-name="samech_dag_hazak" horiz-adv-x="626" 
d="M566 525c0 -245 -32 -525 -343 -525h-108l-55 525h506zM475 450h-323l45 -375h50c199 0 228 222 228 375z" />
    <glyph glyph-name="final_pe_dag_hazak" horiz-adv-x="557" 
d="M488 -160h-90v496c0 75 -48 114 -121 114h-122v-207h-90v282h221c125 0 202 -67 202 -193v-492z" />
    <glyph glyph-name="pe_dag_hazak" horiz-adv-x="566" 
d="M496 0h-426v75h336v261c0 76 -47 114 -121 114h-125v-207h-90v282h223c125 0 203 -65 203 -193v-332z" />
    <glyph glyph-name="tsadi_dag_hazak" horiz-adv-x="526" 
d="M486 525l-39 -148c-15 -57 -69 -132 -134 -132l154 -245h-414v75h271l-284 450h101l138 -221c44 0 70 48 80 85c12 45 23 91 35 136h92z" />
    <glyph glyph-name="qof_dag_hazak" horiz-adv-x="618" 
d="M594 525l-213 -525h-94l184 450h-401v75h524zM175 -160h-90v475h90v-475z" />
    <glyph glyph-name="resh_dag_hazak" horiz-adv-x="477" 
d="M407 0h-90v336c0 76 -47 114 -121 114h-171v75h180c126 0 202 -66 202 -193v-332z" />
    <glyph glyph-name="shin_dag_hazak" horiz-adv-x="643" 
d="M647 525l-19 -188c-16 -162 -93 -337 -281 -337h-222l-65 525h88l33 -255h39c54 0 66 59 73 101c8 51 13 103 18 154h88c-6 -57 -12 -115 -19 -172c-10 -85 -69 -143 -155 -143h-37l15 -135h121c150 0 205 128 217 258l18 192h88z" />
    <glyph glyph-name="tav_dag_hazak" horiz-adv-x="670" 
d="M595 0h-90v450h-254v-336c0 -69 -49 -114 -117 -114h-84v75h73c22 0 38 16 38 38v337h-102v75h536v-525z" />
    <glyph glyph-name="lamed_hol_dag_hazak" horiz-adv-x="473" 
d="M562 525l-212 -525h-95l184 450h-298v222h90v-147h331zM110 594h-80v76h80v-76z" />
    <glyph glyph-name="shin_shd_dag_hazak" horiz-adv-x="707" 
d="M647 525l-19 -188c-16 -162 -93 -337 -281 -337h-222l-65 525h88l33 -255h39c54 0 66 59 73 101c8 51 13 103 18 154h88c-6 -57 -12 -115 -19 -172c-10 -85 -69 -143 -155 -143h-37l15 -135h121c150 0 205 128 217 258l18 192h88zM640 574h-80v76h80v-76z" />
    <glyph glyph-name="shin_sd_dag_hazak" horiz-adv-x="707" 
d="M650 525l-19 -188c-16 -162 -93 -337 -281 -337h-222l-65 525h88l33 -255h39c54 0 66 59 73 101c8 51 13 103 18 154h88c-6 -57 -12 -115 -19 -172c-10 -85 -69 -143 -155 -143h-37l15 -135h121c150 0 205 128 217 258l18 192h88zM140 573h-80v76h80v-76z" />
    <glyph glyph-name="dagesh_hazak" 
 />
    <glyph glyph-name="etnahta" 
 />
    <glyph glyph-name="segol_taam" 
 />
    <glyph glyph-name="shalshelet" 
 />
    <glyph glyph-name="zaqef_qaton" 
 />
    <glyph glyph-name="zaqef_gadol" 
 />
    <glyph glyph-name="tipeha" 
 />
    <glyph glyph-name="revia" 
 />
    <glyph glyph-name="zarqa" 
 />
    <glyph glyph-name="pashta" 
 />
    <glyph glyph-name="yetiv" 
 />
    <glyph glyph-name="tevir" 
 />
    <glyph glyph-name="geresh_taam" 
 />
    <glyph glyph-name="geresh_muqdam" 
 />
    <glyph glyph-name="gershayim_taam" 
 />
    <glyph glyph-name="karnei_para" 
 />
    <glyph glyph-name="telisha_gdola" 
 />
    <glyph glyph-name="pazer" 
 />
    <glyph glyph-name="munah" 
 />
    <glyph glyph-name="mahpach" 
 />
    <glyph glyph-name="mercha" 
 />
    <glyph glyph-name="mercha_kefula" 
 />
    <glyph glyph-name="darga" 
 />
    <glyph glyph-name="qadma" 
 />
    <glyph glyph-name="telisha_qetana" 
 />
    <glyph glyph-name="yerach_ben_yomo" 
 />
    <glyph glyph-name="ole" 
 />
    <glyph glyph-name="iluy" 
 />
    <glyph glyph-name="dehi" 
 />
    <glyph glyph-name="zinor" 
 />
    <glyph glyph-name="mesora" 
 />
    <glyph glyph-name="inverse_nun" horiz-adv-x="449" 
d="M430 297c0 -56 -20 -104 -60 -145c-40 -40 -88 -60 -144 -60c-57 0 -105 20 -146 60c-40 40 -60 88 -60 145s20 105 60 144c41 39 90 59 146 59s104 -20 144 -60c40 -39 60 -87 60 -143z" />
    <glyph glyph-name="shiluv" horiz-adv-x="449" 
d="M430 297c0 -56 -20 -104 -60 -145c-40 -40 -88 -60 -144 -60c-57 0 -105 20 -146 60c-40 40 -60 88 -60 145s20 105 60 144c41 39 90 59 146 59s104 -20 144 -60c40 -39 60 -87 60 -143z" />
    <glyph glyph-name="he_kavana" horiz-adv-x="555" 
d="M480 297c0 -56 -20 -104 -60 -145c-40 -40 -88 -60 -144 -60c-57 0 -105 20 -146 60c-40 40 -60 88 -60 145s20 105 60 144c41 39 90 59 146 59s104 -20 144 -60c40 -39 60 -87 60 -143z" />
    <glyph glyph-name="takif" horiz-adv-x="449" 
d="M430 297c0 -56 -20 -104 -60 -145c-40 -40 -88 -60 -144 -60c-57 0 -105 20 -146 60c-40 40 -60 88 -60 145s20 105 60 144c41 39 90 59 146 59s104 -20 144 -60c40 -39 60 -87 60 -143z" />
    <glyph glyph-name="adon" horiz-adv-x="449" 
d="M430 297c0 -56 -20 -104 -60 -145c-40 -40 -88 -60 -144 -60c-57 0 -105 20 -146 60c-40 40 -60 88 -60 145s20 105 60 144c41 39 90 59 146 59s104 -20 144 -60c40 -39 60 -87 60 -143z" />
    <glyph glyph-name="alt_lamed_dagesh" horiz-adv-x="473" 
d="M440 297c0 -56 -20 -104 -60 -145c-40 -40 -88 -60 -144 -60c-57 0 -105 20 -146 60c-40 40 -60 88 -60 145s20 105 60 144c41 39 90 59 146 59s104 -20 144 -60c40 -39 60 -87 60 -143z" />
    <glyph glyph-name="alt_lamed_dagesh_haz" horiz-adv-x="473" 
d="M440 297c0 -56 -20 -104 -60 -145c-40 -40 -88 -60 -144 -60c-57 0 -105 20 -146 60c-40 40 -60 88 -60 145s20 105 60 144c41 39 90 59 146 59s104 -20 144 -60c40 -39 60 -87 60 -143z" />
    <glyph glyph-name="wide_alef.001" horiz-adv-x="585" 
d="M450 297c0 -56 -20 -104 -60 -145c-40 -40 -88 -60 -144 -60c-57 0 -105 20 -146 60c-40 40 -60 88 -60 145s20 105 60 144c41 39 90 59 146 59s104 -20 144 -60c40 -39 60 -87 60 -143z" />
    <glyph glyph-name="wide_dalet.001" horiz-adv-x="768" 
d="M435 297c0 -56 -20 -104 -60 -145c-40 -40 -88 -60 -144 -60c-57 0 -105 20 -146 60c-40 40 -60 88 -60 145s20 105 60 144c41 39 90 59 146 59s104 -20 144 -60c40 -39 60 -87 60 -143z" />
    <glyph glyph-name="wide_he.001" horiz-adv-x="885" 
d="M480 297c0 -56 -20 -104 -60 -145c-40 -40 -88 -60 -144 -60c-57 0 -105 20 -146 60c-40 40 -60 88 -60 145s20 105 60 144c41 39 90 59 146 59s104 -20 144 -60c40 -39 60 -87 60 -143z" />
    <glyph glyph-name="wide_kaf.001" horiz-adv-x="737" 
d="M460 297c0 -56 -20 -104 -60 -145c-40 -40 -88 -60 -144 -60c-57 0 -105 20 -146 60c-40 40 -60 88 -60 145s20 105 60 144c41 39 90 59 146 59s104 -20 144 -60c40 -39 60 -87 60 -143z" />
    <glyph glyph-name="wide_lamed.001" horiz-adv-x="699" 
d="M440 297c0 -56 -20 -104 -60 -145c-40 -40 -88 -60 -144 -60c-57 0 -105 20 -146 60c-40 40 -60 88 -60 145s20 105 60 144c41 39 90 59 146 59s104 -20 144 -60c40 -39 60 -87 60 -143z" />
    <glyph glyph-name="wide_resh.001" horiz-adv-x="808" 
d="M435 297c0 -56 -20 -104 -60 -145c-40 -40 -88 -60 -144 -60c-57 0 -105 20 -146 60c-40 40 -60 88 -60 145s20 105 60 144c41 39 90 59 146 59s104 -20 144 -60c40 -39 60 -87 60 -143z" />
    <glyph glyph-name="wide_tav.001" horiz-adv-x="983" 
d="M460 297c0 -56 -20 -104 -60 -145c-40 -40 -88 -60 -144 -60c-57 0 -105 20 -146 60c-40 40 -60 88 -60 145s20 105 60 144c41 39 90 59 146 59s104 -20 144 -60c40 -39 60 -87 60 -143z" />
    <glyph glyph-name="wide_alef.002" horiz-adv-x="585" 
d="M545 0h-103c-37 59 -75 118 -113 176c-25 37 -50 74 -77 109c-7 0 -17 -3 -24 -6c-46 -21 -60 -74 -65 -120l-15 -159h-88c5 54 10 109 16 163c7 66 34 125 95 158c11 6 26 12 38 14c-52 66 -112 128 -169 190h113c66 -72 133 -146 191 -225c50 5 66 62 73 103
s13 81 19 122h87c-6 -39 -11 -78 -17 -117c-13 -86 -37 -138 -127 -158z" />
    <glyph glyph-name="wide_dalet.002" horiz-adv-x="768" 
d="M730 450h-73v-450h-90v450h-542v75h705v-75z" />
    <glyph glyph-name="wide_kaf.002" horiz-adv-x="737" 
d="M692 262c0 -147 -61 -262 -223 -262h-419v75h411c114 0 141 91 141 187s-27 188 -141 188h-411v75h419c163 0 223 -116 223 -263z" />
    <glyph glyph-name="wide_lamed.002" horiz-adv-x="699" 
d="M677 525l-212 -525h-95l184 450h-524v222h90v-147h557z" />
    <glyph glyph-name="wide_resh.002" horiz-adv-x="808" 
d="M738 0h-90v336c0 76 -47 114 -121 114h-502v75h511c126 0 202 -66 202 -193v-332z" />
    <glyph glyph-name="wide_tav.002" horiz-adv-x="983" 
d="M908 0h-90v450h-567v-336c0 -69 -49 -114 -117 -114h-84v75h73c22 0 38 16 38 38v337h-102v75h849v-525z" />
    <glyph glyph-name="wide_he.002" 
 />
    </font>
</defs>
</svg>
